<?xml version="1.0" encoding="UTF-8"?>
<svg version="1.1" xmlns="http://www.w3.org/2000/svg" width="480" height="480">
<path d="M0 0 C158.4 0 316.8 0 480 0 C480 158.4 480 316.8 480 480 C321.6 480 163.2 480 0 480 C0 321.6 0 163.2 0 0 Z " fill="#FDFDFE" transform="translate(0,0)"/>
<path d="M0 0 C71.96200372 0 71.96200372 0 86 12.0625 C94.415537 21.83740581 93.56950151 35.6065343 93.4609375 47.70703125 C93.45854669 49.48532476 93.4576491 51.26362084 93.4581604 53.04191589 C93.45505407 56.7441724 93.43865114 60.4460357 93.41162109 64.14819336 C93.37751969 68.87664901 93.36999744 73.60467718 93.37151146 78.33324146 C93.37096615 81.99568201 93.35997515 85.65803049 93.34550858 89.32044029 C93.3391799 91.06383254 93.33521097 92.80723511 93.33372116 94.5506382 C93.32935302 96.98812058 93.31178131 99.42516233 93.29052734 101.86254883 C93.29143372 102.57077286 93.29234009 103.27899689 93.29327393 104.00868225 C93.18469612 112.58491892 91.16162596 121.45920368 85.2421875 127.91796875 C63.18210106 148.20459726 25.35474339 139 0 139 C0 93.13 0 47.26 0 0 Z " fill="#1AA1E0" transform="translate(128,135)"/>
<path d="M0 0 C158.4 0 316.8 0 480 0 C480 158.4 480 316.8 480 480 C321.6 480 163.2 480 0 480 C0 321.6 0 163.2 0 0 Z M6 6 C6 160.44 6 314.88 6 474 C160.44 474 314.88 474 474 474 C474 319.56 474 165.12 474 6 C319.56 6 165.12 6 6 6 Z " fill="#1BA1E0" transform="translate(0,0)"/>
<path d="M0 0 C39.10119207 -0.06866636 78.20237629 -0.12152891 117.30361661 -0.15319599 C121.91985909 -0.15694811 126.53610145 -0.16083108 131.15234375 -0.16479492 C132.07135462 -0.16558185 132.99036548 -0.16636878 133.93722516 -0.16717956 C148.81778301 -0.18023353 163.69830608 -0.20388734 178.5788433 -0.23145839 C193.84760731 -0.25951281 209.11635312 -0.27617634 224.38514185 -0.28226548 C233.80682543 -0.28638184 243.22841073 -0.29938318 252.65006405 -0.3237494 C259.11081518 -0.33960704 265.5715155 -0.34440029 272.03228468 -0.34050413 C275.75983365 -0.33858263 279.48721087 -0.34152861 283.21472931 -0.35761642 C287.258296 -0.37494063 291.30149738 -0.36895989 295.34509277 -0.36076355 C297.10775679 -0.37387134 297.10775679 -0.37387134 298.90603018 -0.38724393 C308.32378487 -0.3355789 315.12776483 1.28758425 322 8 C326.03094308 13.42092345 326.12222572 19.1295333 326.15390015 25.70394897 C326.1582824 26.35271582 326.16266465 27.00148267 326.1671797 27.66990912 C326.18046598 29.82991001 326.18672332 31.98987022 326.19287109 34.14990234 C326.20077979 35.70429158 326.2090492 37.25867902 326.21765137 38.81306458 C326.24377184 43.90400462 326.25916402 48.9949525 326.2734375 54.0859375 C326.27880034 55.84218983 326.28417786 57.59844212 326.28956985 59.35469437 C326.31117947 66.66024502 326.32991634 73.96579355 326.34119225 81.27136803 C326.35743746 91.72541246 326.39065101 102.1790857 326.44759309 112.63299024 C326.4863156 119.99368491 326.50582737 127.35428035 326.51111281 134.71507418 C326.51476165 139.10735173 326.52673402 143.49923243 326.55921555 147.89139938 C326.58933898 152.0234726 326.59559307 156.15490965 326.58383179 160.28706932 C326.58361144 161.79954211 326.59188423 163.31204483 326.60948563 164.82441521 C326.71617694 174.52288507 325.79231256 180.74064003 319.15625 188.0234375 C318.6096875 188.46945312 318.063125 188.91546875 317.5 189.375 C316.9534375 189.83648437 316.406875 190.29796875 315.84375 190.7734375 C311.44182962 193.70183368 307.59515412 194.25096551 302.36318493 194.25726891 C301.70641186 194.26077498 301.0496388 194.26428105 300.37296352 194.26789337 C298.16873925 194.27720893 295.96477909 194.27228374 293.76054382 194.26742554 C292.16563016 194.27116172 290.57071832 194.27576312 288.9758094 194.28115618 C284.59012102 194.29340552 280.20450883 194.29312344 275.81880724 194.29076743 C271.08998792 194.29035975 266.36119317 194.30139372 261.63238525 194.31088257 C252.36661537 194.32750412 243.10087093 194.33299264 233.83508738 194.33410732 C226.30428301 194.33505725 218.77348704 194.33916475 211.24268532 194.34550858 C189.89712361 194.3631241 168.55158202 194.37234695 147.20601299 194.37084763 C145.47945526 194.37072776 145.47945526 194.37072776 143.71801758 194.37060547 C142.56557565 194.37052371 141.41313373 194.37044195 140.22576932 194.37035771 C121.54642888 194.36954471 102.86716905 194.38868506 84.18785193 194.4168822 C65.01359884 194.44559836 45.83938508 194.4594232 26.66510993 194.45769465 C15.8979841 194.45703031 5.13094277 194.46254179 -5.63616371 194.48405075 C-14.80323473 194.50224584 -23.97018293 194.50662363 -33.13726417 194.4930319 C-37.81471647 194.48649383 -42.49193303 194.48641533 -47.16936302 194.5037384 C-51.45222216 194.51943708 -55.73465801 194.51663842 -60.01750662 194.49917014 C-61.56594335 194.49609316 -63.11441142 194.4997589 -64.6628112 194.51089029 C-73.73447083 194.57178106 -80.70456697 194.36951252 -87.98828125 188.359375 C-88.64376953 187.56273437 -88.64376953 187.56273437 -89.3125 186.75 C-89.76238281 186.22921875 -90.21226563 185.7084375 -90.67578125 185.171875 C-95.49737512 177.26389213 -95.41573465 169.80397777 -95.34057617 160.78125 C-95.33972879 159.35151691 -95.34020721 157.92178251 -95.34190369 156.49205017 C-95.34276073 152.63096091 -95.32518246 148.77015402 -95.30418181 144.9091301 C-95.28536624 140.86659953 -95.28366074 136.82406174 -95.28010559 132.78149414 C-95.27079941 125.13539113 -95.24620507 117.48941754 -95.21605712 109.84337139 C-95.18246856 101.13478461 -95.16601592 92.42619149 -95.15097082 83.717556 C-95.11965415 65.81163076 -95.06692157 47.9058258 -95 30 C-93.02 30 -91.04 30 -89 30 C-88.99853344 30.75206789 -88.99706688 31.50413578 -88.99555588 32.27899361 C-88.95849704 50.58223866 -88.89949461 68.88529271 -88.81609726 87.18838692 C-88.77629542 96.03965685 -88.74390876 104.89083774 -88.72900391 113.7421875 C-88.7159933 121.45743526 -88.68904384 129.17248716 -88.64538693 136.88762462 C-88.62275869 140.9724139 -88.60709013 145.05696149 -88.60811615 149.141819 C-88.60886197 152.98821752 -88.59094319 156.83408151 -88.55883217 160.68034172 C-88.55032743 162.09039688 -88.5485872 163.50051195 -88.55419731 164.91058159 C-88.83799975 174.85007239 -88.83799975 174.85007239 -84 183 C-80.08266524 186.72604741 -77.70373059 187.50008064 -72.32357025 187.50057125 C-71.66252165 187.50608542 -71.00147305 187.51159958 -70.32039267 187.51728085 C-68.101359 187.53089564 -65.88344174 187.51596953 -63.66442871 187.50120544 C-62.05912454 187.50509763 -60.45382381 187.51073741 -58.84853125 187.51797634 C-54.43414655 187.53276094 -50.02011748 187.52253201 -45.60574412 187.50823963 C-40.846301 187.49715075 -36.08690862 187.50906552 -31.32746887 187.51808167 C-22.00250375 187.53203037 -12.67767384 187.52444592 -3.35271513 187.50940608 C7.50149786 187.49256468 18.35567699 187.49575388 29.20989901 187.49950016 C48.57371655 187.50538173 67.93746911 187.49119553 87.30126953 187.46655273 C106.10044796 187.4426311 124.89953956 187.4355481 143.69873047 187.44604492 C164.15886375 187.45744865 184.61895685 187.45939094 205.07908964 187.44494683 C207.259895 187.44342095 209.44070037 187.44190059 211.62150574 187.44038582 C213.23109633 187.4392491 213.23109633 187.4392491 214.8732039 187.43808941 C222.44312934 187.43334237 230.01303687 187.435201 237.58296204 187.43945122 C246.80537766 187.4443728 256.02771111 187.43841622 265.25010788 187.41855692 C269.95752097 187.40867059 274.66480881 187.40359425 279.37222862 187.41144943 C283.67893717 187.41848903 287.98539261 187.4117421 292.29206771 187.3938458 C293.85255734 187.3897901 295.41306992 187.39081991 296.97355109 187.39736467 C299.09052888 187.40548556 301.20664775 187.39523952 303.32357025 187.38031673 C305.08919131 187.37877304 305.08919131 187.37877304 306.89048147 187.37719816 C311.06875367 186.87035552 313.74843298 185.38459478 316.56040192 182.27374458 C320.9089055 175.0743708 320.69478886 167.96868845 320.61523438 159.76904297 C320.61874066 158.24214055 320.62440494 156.7152418 320.63204956 155.18835449 C320.64623214 151.06433657 320.62930225 146.94099064 320.60576439 142.81703711 C320.58557808 138.49083113 320.59153885 134.16465094 320.59387207 129.83840942 C320.59381859 122.57721952 320.57411617 115.31629067 320.54199219 108.05517578 C320.50507575 99.67023946 320.49632147 91.2856445 320.5032897 82.90063751 C320.50960212 74.81840733 320.49882851 66.73629371 320.47932434 58.65408707 C320.47116752 55.22123677 320.4684376 51.78844618 320.47001648 48.35558701 C320.47089762 44.31216823 320.45661775 40.26907213 320.43078995 36.22573853 C320.42364958 34.74513438 320.42153424 33.26449585 320.42490768 31.78387833 C320.59898272 21.44437709 320.59898272 21.44437709 317 12 C312.41965695 7.54019229 307.93869776 5.7538279 301.59022808 5.73828697 C299.97119155 5.72708873 299.97119155 5.72708873 298.31944722 5.71566427 C296.54951184 5.71856637 296.54951184 5.71856637 294.74382019 5.7215271 C293.48589749 5.7157347 292.22797479 5.7099423 290.93193322 5.70397437 C287.44293047 5.68817442 283.95400825 5.68474369 280.46497405 5.68332577 C276.70154059 5.67963171 272.93815131 5.6644762 269.17474365 5.65071106 C262.65523427 5.62843459 256.1357406 5.61342364 249.6162014 5.60334396 C240.19004186 5.58875995 230.76393704 5.5632239 221.3378096 5.53501268 C206.0446382 5.48953964 190.75145893 5.45292694 175.45825195 5.421875 C160.60211809 5.39169156 145.7460035 5.35734223 130.88989258 5.31738281 C129.51635154 5.31369049 129.51635154 5.31369049 128.1150622 5.30992357 C123.52130531 5.29754901 118.92754865 5.28509247 114.33379209 5.27259517 C76.22255477 5.16901971 38.11129405 5.07981897 0 5 C0 3.35 0 1.7 0 0 Z " fill="#275A8D" transform="translate(127,106)"/>
<path d="M0 0 C28.05 0 56.1 0 85 0 C85 22 85 22 81 30 C79.62382435 32.91869891 78.30968247 35.8634137 77 38.8125 C76.64752197 39.60438721 76.29504395 40.39627441 75.93188477 41.2121582 C74.11815924 45.32783911 72.41227183 49.43556044 70.9375 53.6875 C69.1982874 58.69827109 66.98539423 63.44453331 64.71557617 68.22973633 C59.05796438 80.1010605 59.05796438 80.1010605 54.5625 92.4375 C53.07169994 97.18175196 50.89888877 101.58648671 48.76245117 106.06347656 C46.06797139 111.7508015 43.72017401 117.53366945 41.421875 123.390625 C39.35907793 128.62695602 37.17819873 133.81076185 35 139 C27.08 139 19.16 139 11 139 C11 137.68 11 136.36 11 135 C11.66 135 12.32 135 13 135 C13.15275391 134.00033203 13.15275391 134.00033203 13.30859375 132.98046875 C14.17365503 129.25141929 15.58168014 125.82853533 17.0625 122.3125 C17.36978027 121.57354492 17.67706055 120.83458984 17.99365234 120.07324219 C20.61282894 113.81829556 23.37863024 107.63178228 26.16064453 101.44799805 C28.05319166 97.21568288 29.81982052 92.97216616 31.4375 88.625 C33.88834674 82.0617155 36.79631774 75.73378547 39.70288086 69.36376953 C41.78014738 64.78694693 43.75019038 60.21476481 45.5 55.5 C47.92557407 48.96700782 50.7969249 42.65806768 53.703125 36.328125 C56.32362271 30.59980895 58.65364959 24.86587602 61 19 C47.8 19 34.6 19 21 19 C21 25.93 21 32.86 21 40 C14.07 40 7.14 40 0 40 C0 26.8 0 13.6 0 0 Z " fill="#26568A" transform="translate(296,138)"/>
<path d="M0 0 C0 45.54 0 91.08 0 138 C-6.93 138 -13.86 138 -21 138 C-21.495 80.58 -21.495 80.58 -22 22 C-30.91 27.94 -30.91 27.94 -40 34 C-40.66 34 -41.32 34 -42 34 C-43.79385323 16.43780054 -43.79385323 16.43780054 -39.8671875 11.1015625 C-36.99618602 9.07826619 -34.14453888 7.56292182 -31 6 C-22 0 -22 0 0 0 Z " fill="#24548A" transform="translate(277,138)"/>
<path d="M0 0 C25.77029904 0 25.77029904 0 31.34562683 5.17880249 C33.50001741 8.85267816 33.54032781 12.00111701 33.4699707 16.13916016 C33.4721611 16.94461777 33.4743515 17.75007538 33.47660828 18.5799408 C33.47891356 21.23340373 33.45269893 23.88574814 33.42578125 26.5390625 C33.42085616 28.38560636 33.41755805 30.23215522 33.41581726 32.07870483 C33.40818391 35.94390875 33.38764149 39.80874149 33.35668945 43.67382812 C33.31705973 48.63161838 33.29907079 53.58916755 33.28938007 58.54709816 C33.27941393 63.27361899 33.25952607 68.00008088 33.23828125 72.7265625 C33.2348855 73.63004047 33.23148975 74.53351845 33.2279911 75.46437454 C33.21642899 78.01619758 33.19791107 80.56786741 33.17700195 83.11962891 C33.17431305 83.87709915 33.17162415 84.6345694 33.16885376 85.41499329 C33.1366733 88.54193344 32.99637755 91.01086736 32 94 C22.09923944 102.85857523 16.40115356 99 0 99 C0 66.33 0 33.66 0 0 Z " fill="#FAFCFE" transform="translate(158,155)"/>
<path d="M0 0 C3.66571022 1.91509861 6.15134413 4.30268825 8 8 C8.13605037 11.06479257 8.21281911 14.10565679 8.23828125 17.171875 C8.246353 18.08704895 8.25442474 19.0022229 8.26274109 19.94512939 C8.27658629 21.8852753 8.28730649 23.82544561 8.29516602 25.765625 C8.3123515 28.72443248 8.35623007 31.68211467 8.40039062 34.640625 C8.41052001 36.52603345 8.41903535 38.41145141 8.42578125 40.296875 C8.44328934 41.17833191 8.46079742 42.05978882 8.47883606 42.96795654 C8.4594657 48.48967523 7.68186337 51.6212951 4 56 C-0.28521485 59.87709915 -3.84939494 60.69940521 -9.46484375 60.4453125 C-13.65143092 59.70991814 -17.05974932 58.08963986 -20 55 C-22.77275883 49.60649669 -23.46717587 45.30277749 -23.46875 39.28515625 C-23.47636353 38.47058456 -23.48397705 37.65601288 -23.49182129 36.8167572 C-23.50257051 35.10321093 -23.50549659 33.38959942 -23.50097656 31.67602539 C-23.50000378 29.07260665 -23.54168979 26.47213519 -23.5859375 23.86914062 C-23.59114538 22.19531858 -23.59383268 20.5214864 -23.59375 18.84765625 C-23.61014526 18.0797023 -23.62654053 17.31174835 -23.64343262 16.52052307 C-23.57031612 10.72497214 -21.90310363 6.35851727 -18 2 C-12.56814589 -1.3043274 -6.12365534 -0.82112651 0 0 Z " fill="#FAC537" transform="translate(215,315)"/>
<path d="M0 0 C22.77957917 0 22.77957917 0 28.27929688 5.12329102 C30.67806618 9.13360581 30.57603538 12.43469809 30.53125 17.02734375 C30.5350769 17.89388077 30.53890381 18.76041779 30.54284668 19.6532135 C30.54556205 21.48130458 30.53822711 23.30943475 30.52148438 25.13745117 C30.50009434 27.92520474 30.52128422 30.71037378 30.546875 33.49804688 C30.54423115 35.27865149 30.53910498 37.0592545 30.53125 38.83984375 C30.53934692 39.66814194 30.54744385 40.49644012 30.55578613 41.34983826 C30.46991871 46.69066153 29.54940066 49.76780332 26 54 C16.81123731 60.34462186 14.78147373 58 0 58 C0 38.86 0 19.72 0 0 Z " fill="#1CA2E0" transform="translate(50,316)"/>
<path d="M0 0 C18 0 18 0 23 3 C25.48706153 6.7305923 25.33096694 8.86075804 25.375 13.3125 C25.40335937 14.60800781 25.43171875 15.90351563 25.4609375 17.23828125 C24.90993456 21.73502558 23.74672105 23.49874491 21 27 C21.99 27.33 22.98 27.66 24 28 C26.54400761 31.81601142 26.33116914 34.95414856 26.3125 39.375 C26.32861328 40.13039063 26.34472656 40.88578125 26.36132812 41.6640625 C26.36533455 46.24741034 26.04986843 49.34547356 23 53 C18 56 18 56 0 56 C0 37.52 0 19.04 0 0 Z " fill="#205389" transform="translate(306,315)"/>
<path d="M0 0 C22.71480804 0 22.71480804 0 28.33984375 5.13671875 C30.62746141 9.08218638 30.64641758 12.32337047 30.5625 16.8125 C30.54823975 18.0180957 30.54823975 18.0180957 30.53369141 19.24804688 C30.35119781 24.42537965 29.8525956 28.58293871 26.46875 32.71875 C21.02175001 37.47038829 15.18399146 36 8 36 C8 43.59 8 51.18 8 59 C5.36 59 2.72 59 0 59 C0 39.53 0 20.06 0 0 Z " fill="#FAC436" transform="translate(157,315)"/>
<path d="M0 0 C2.97 0 5.94 0 9 0 C11.52368363 6.62367439 13.86948826 13.30192687 16.1875 20 C17.445625 23.63 18.70375 27.26 20 31 C20.33 21.1 20.66 11.2 21 1 C23.31 1 25.62 1 28 1 C28 19.48 28 37.96 28 57 C25.36 57 22.72 57 20 57 C17.40192339 49.46702926 15.03806476 41.88607008 12.83911133 34.22875977 C11.35564882 29.0931335 9.69452905 24.08358715 8 19 C7.67 31.87 7.34 44.74 7 58 C4.69 58 2.38 58 0 58 C0 38.86 0 19.72 0 0 Z " fill="#2C5B8E" transform="translate(370,314)"/>
<path d="M0 0 C1.37478516 0.01740234 1.37478516 0.01740234 2.77734375 0.03515625 C3.69644531 0.04417969 4.61554688 0.05320312 5.5625 0.0625 C6.27277344 0.07410156 6.98304688 0.08570313 7.71484375 0.09765625 C17.95266436 38.8016122 17.95266436 38.8016122 17.71484375 56.09765625 C15.40484375 56.09765625 13.09484375 56.09765625 10.71484375 56.09765625 C10.38484375 52.46765625 10.05484375 48.83765625 9.71484375 45.09765625 C5.09484375 45.09765625 0.47484375 45.09765625 -4.28515625 45.09765625 C-4.42953125 46.54140625 -4.57390625 47.98515625 -4.72265625 49.47265625 C-5.16015625 53.84765625 -5.16015625 53.84765625 -6.28515625 56.09765625 C-8.26515625 56.09765625 -10.24515625 56.09765625 -12.28515625 56.09765625 C-11.68488686 49.09583281 -10.71273364 42.22788687 -9.47265625 35.3125 C-9.21198364 33.83904869 -9.21198364 33.83904869 -8.94604492 32.33583069 C-8.58144772 30.28092967 -8.21497077 28.22636134 -7.84667969 26.17211914 C-7.28128646 23.01353758 -6.72428373 19.85355108 -6.16796875 16.69335938 C-5.81169646 14.69131747 -5.45494325 12.68936107 -5.09765625 10.6875 C-4.93096436 9.73971176 -4.76427246 8.79192352 -4.5925293 7.81541443 C-4.4356665 6.94683304 -4.27880371 6.07825165 -4.1171875 5.18334961 C-3.98030518 4.4163121 -3.84342285 3.6492746 -3.70239258 2.85899353 C-3.07253031 0.20006902 -2.77946698 0.11878064 0 0 Z " fill="#26568B" transform="translate(348.28515625,314.90234375)"/>
<path d="M0 0 C4.02443253 2.24439506 6.20282311 4.71814622 8.25 8.8125 C8.38415472 11.4848621 8.29318541 14.13500488 8.25 16.8125 C5.28 16.8125 2.31 16.8125 -0.75 16.8125 C-0.9453125 14.79427083 -1.140625 12.77604167 -1.3359375 10.7578125 C-1.61374749 8.58581755 -1.61374749 8.58581755 -3.75 6.8125 C-6.70769177 6.31239476 -6.70769177 6.31239476 -9.75 6.8125 C-12.2592428 8.98717709 -12.68934465 10.41390771 -13.1875 13.6875 C-12.47250026 18.794641 -9.85933248 21.91069051 -5.91015625 25.12109375 C-4.88792969 25.82363281 -3.86570313 26.52617187 -2.8125 27.25 C7.62735868 34.9109952 7.62735868 34.9109952 8.67578125 41.48046875 C8.95534247 47.3991791 8.34217341 51.26564066 4.25 55.8125 C0.01298555 59.65229435 -3.97509092 60.18523635 -9.65625 60.08984375 C-13.48337291 59.58289277 -15.64148599 58.1286477 -18.75 55.8125 C-22.22253841 50.99575317 -22.09198476 46.51224592 -21.75 40.8125 C-19.44 40.8125 -17.13 40.8125 -14.75 40.8125 C-14.55083984 41.76962891 -14.55083984 41.76962891 -14.34765625 42.74609375 C-14.17105469 43.57238281 -13.99445313 44.39867187 -13.8125 45.25 C-13.63847656 46.07371094 -13.46445313 46.89742188 -13.28515625 47.74609375 C-12.94247006 49.78911204 -12.94247006 49.78911204 -11.75 50.8125 C-10.25261876 50.9104057 -8.75057108 50.94224864 -7.25 50.9375 C-6.4353125 50.94007813 -5.620625 50.94265625 -4.78125 50.9453125 C-2.75469623 51.0370178 -2.75469623 51.0370178 -1.75 49.8125 C-1.03142647 46.33487528 -0.9716944 43.28223657 -1.75 39.8125 C-4.31559505 36.56426325 -7.42443704 34.24842192 -10.75 31.8125 C-15.96817907 27.80785095 -19.66089686 24.20416081 -21.75 17.8125 C-22.41889325 12.36579783 -21.37622505 8.61215267 -18.75 3.8125 C-12.81897506 -1.68454751 -7.62017642 -2.41305586 0 0 Z " fill="#FAC539" transform="translate(251.75,315.1875)"/>
<path d="M0 0 C2.64 0 5.28 0 8 0 C8.33 7.26 8.66 14.52 9 22 C12.96 15.07 16.92 8.14 21 1 C23.64 1 26.28 1 29 1 C28.13658589 2.62613229 27.27290138 4.2521215 26.40795898 5.87744141 C25.67534989 7.2551449 24.94440217 8.63373309 24.21508789 10.01318359 C21.8565285 14.45757593 19.39337044 18.80863105 16.71484375 23.0703125 C15.424026 26.55481505 16.79876356 29.53117611 18.21508789 32.83081055 C18.71258545 33.83926025 19.21008301 34.84770996 19.72265625 35.88671875 C20.26083984 36.98951172 20.79902344 38.09230469 21.35351562 39.22851562 C21.91748047 40.36998047 22.48144531 41.51144531 23.0625 42.6875 C24.18186269 44.96053049 25.29792785 47.23518884 26.41015625 49.51171875 C26.90652588 50.51678467 27.40289551 51.52185059 27.91430664 52.55737305 C29 55 29 55 29 57 C26.69 57 24.38 57 22 57 C20.72428516 54.8152247 19.45439327 52.62738381 18.1875 50.4375 C17.83107422 49.82841797 17.47464844 49.21933594 17.10742188 48.59179688 C14.74518233 44.49580354 12.78642845 40.37872209 11 36 C10.34 36 9.68 36 9 36 C8.67 43.26 8.34 50.52 8 58 C5.36 58 2.72 58 0 58 C0 38.86 0 19.72 0 0 Z " fill="#2E5C8E" transform="translate(403,314)"/>
<path d="M0 0 C3.81978202 1.77347022 5.48336877 3.25949523 7.875 6.6875 C9.30596465 10.90089593 9.26420132 14.5966446 9 19 C6.69 19 4.38 19 2 19 C1.95101562 18.30132812 1.90203125 17.60265625 1.8515625 16.8828125 C1.77679688 15.97273438 1.70203125 15.06265625 1.625 14.125 C1.55539063 13.22007812 1.48578125 12.31515625 1.4140625 11.3828125 C1.20431868 8.82058097 1.20431868 8.82058097 -1 7 C-3.1398632 6.681616 -3.1398632 6.681616 -5.5 6.75 C-6.2940625 6.74484375 -7.088125 6.7396875 -7.90625 6.734375 C-10.21892751 6.81060091 -10.21892751 6.81060091 -12 9 C-12.20010854 11.97803039 -12.27972613 14.86104914 -12.265625 17.83984375 C-12.26753845 18.71774063 -12.2694519 19.59563751 -12.27142334 20.50013733 C-12.27278565 22.35873704 -12.26908599 24.21734625 -12.26074219 26.07592773 C-12.25005601 28.92258089 -12.26062925 31.7686011 -12.2734375 34.61523438 C-12.27211566 36.41927223 -12.26955277 38.22330969 -12.265625 40.02734375 C-12.26967346 40.88053696 -12.27372192 41.73373016 -12.27789307 42.61277771 C-12.24605569 47.60299267 -12.24605569 47.60299267 -10 52 C-7.86746355 52.47687303 -7.86746355 52.47687303 -5.5 52.375 C-4.7059375 52.38273437 -3.911875 52.39046875 -3.09375 52.3984375 C-2.05734375 52.20121094 -2.05734375 52.20121094 -1 52 C1.48044315 48.27933528 1.44381173 45.13459526 1.625 40.8125 C1.66367188 40.06291016 1.70234375 39.31332031 1.7421875 38.54101562 C1.83628216 36.69440801 1.91922319 34.8472381 2 33 C-0.31 33 -2.62 33 -5 33 C-5 31.02 -5 29.04 -5 27 C-0.38 27 4.24 27 9 27 C9.10845173 30.52166873 9.18753575 34.03996233 9.25 37.5625 C9.30027344 39.0484668 9.30027344 39.0484668 9.3515625 40.56445312 C9.43690549 46.98651347 8.80243401 50.77077468 5 56 C1.11494252 59.64959945 -3.24512358 59.5053663 -8.33984375 59.34765625 C-12.1549205 58.84906325 -14.22388218 57.63731193 -17 55 C-20.21803292 49.90747375 -20.45434654 45.70827732 -20.43359375 39.875 C-20.4388356 39.00987793 -20.44407745 38.14475586 -20.44947815 37.25341797 C-20.45587791 35.43132598 -20.45458795 33.60919257 -20.44604492 31.78710938 C-20.43752564 29.00836341 -20.46633844 26.23166873 -20.49804688 23.453125 C-20.49965895 21.67708395 -20.49908124 19.90103927 -20.49609375 18.125 C-20.51294472 16.8872583 -20.51294472 16.8872583 -20.53013611 15.62451172 C-20.46587484 10.27444247 -19.51343152 7.26534593 -16 3 C-11.4917811 -1.09838082 -5.75434825 -0.7520367 0 0 Z " fill="#1EA3E0" transform="translate(124,315)"/>
<path d="M0 0 C11 0 11 0 15 3 C16.27385127 6.8215538 16.12353188 10.4068447 16.09765625 14.38671875 C16.0962413 15.20372757 16.09482635 16.02073639 16.09336853 16.86250305 C16.08777294 19.47087268 16.07522129 22.07915634 16.0625 24.6875 C16.05748443 26.45637897 16.05292162 28.22525928 16.04882812 29.99414062 C16.03780496 34.32946019 16.02054338 38.66471552 16 43 C15.34 43 14.68 43 14 43 C13.67 43.99 13.34 44.98 13 46 C11 47 11 47 0 47 C0 31.49 0 15.98 0 0 Z " fill="#F4FAFD" transform="translate(57,321)"/>
<path d="M0 0 C10.56 0 21.12 0 32 0 C32 2.31 32 4.62 32 7 C28.04 7 24.08 7 20 7 C20 24.16 20 41.32 20 59 C17.36 59 14.72 59 12 59 C12 41.84 12 24.68 12 7 C8.04 7 4.08 7 0 7 C0 4.69 0 2.38 0 0 Z " fill="#FAC330" transform="translate(264,315)"/>
<path d="M0 0 C2.39336092 1.64281074 3.78882194 2.93443633 4.36642456 5.84890747 C4.51400375 8.18084508 4.52798531 10.47997402 4.49609375 12.81640625 C4.49754898 13.66927719 4.49900421 14.52214813 4.50050354 15.40086365 C4.49884617 17.2004641 4.48730299 19.00007896 4.46655273 20.79956055 C4.43756375 23.55643748 4.44595315 26.31139517 4.45898438 29.06835938 C4.45274779 30.81771769 4.44435746 32.56706993 4.43359375 34.31640625 C4.43652939 35.14145157 4.43946503 35.96649689 4.44248962 36.81654358 C4.34741701 42.57053143 4.34741701 42.57053143 2.61170959 44.71617126 C0.48116524 46.41328474 -0.86523963 46.40166155 -3.5625 46.375 C-4.74005859 46.38660156 -4.74005859 46.38660156 -5.94140625 46.3984375 C-6.62074219 46.26695312 -7.30007812 46.13546875 -8 46 C-10.58925159 42.11612261 -10.32377642 38.8245068 -10.3359375 34.31640625 C-10.3425943 33.46449203 -10.3492511 32.61257782 -10.35610962 31.73484802 C-10.36623202 29.93352416 -10.37092677 28.13216282 -10.37060547 26.33081055 C-10.37497852 23.57603147 -10.41130042 20.82285492 -10.44921875 18.06835938 C-10.45508705 16.31771381 -10.45905635 14.56706064 -10.4609375 12.81640625 C-10.47530853 11.99338516 -10.48967957 11.17036407 -10.50448608 10.32240295 C-10.47415934 6.5233454 -10.44978372 4.61551549 -8.15869141 1.48022461 C-5.20456296 -0.54543483 -3.50954514 -0.58492419 0 0 Z " fill="#FEFDFA" transform="translate(211,321)"/>
<path d="M0 0 C2.31 0 4.62 0 7 0 C7 19.47 7 38.94 7 59 C4.69 59 2.38 59 0 59 C0 39.53 0 20.06 0 0 Z " fill="#23A4E0" transform="translate(88,315)"/>
<path d="M0 0 C1.98 0 3.96 0 6 0 C6 18.81 6 37.62 6 57 C4.02 57 2.04 57 0 57 C0 38.19 0 19.38 0 0 Z " fill="#119EDE" transform="translate(142,316)"/>
<path d="M0 0 C3.3 0 6.6 0 10 0 C13.30184231 3.30184231 13.38536272 4.32532279 13.41015625 8.8046875 C13.39855469 9.52914063 13.38695312 10.25359375 13.375 11 C13.38660156 11.72445313 13.39820313 12.44890625 13.41015625 13.1953125 C13.38536272 17.67467721 13.30184231 18.69815769 10 22 C6.7 22 3.4 22 0 22 C0 14.74 0 7.48 0 0 Z " fill="#FEFBF4" transform="translate(165,322)"/>
<path d="M0 0 C8 0 8 0 10.46875 1.0625 C12.77335225 3.97852734 12.53053475 6.33583034 12.5 10 C12.5103125 11.2375 12.520625 12.475 12.53125 13.75 C12 17 12 17 10.46875 18.9375 C8 20 8 20 0 20 C0 13.4 0 6.8 0 0 Z " fill="#F1F3F6" transform="translate(313,345)"/>
<path d="M0 0 C8 0 8 0 9.98046875 1.12109375 C11.44798681 3.82560021 11.36081606 6.00372194 11.3125 9.0625 C11.30863281 10.12597656 11.30476563 11.18945312 11.30078125 12.28515625 C11 15 11 15 9 17 C5.98173347 17.27240673 3.03629378 17.08675125 0 17 C0 11.39 0 5.78 0 0 Z " fill="#EFF2F5" transform="translate(313,321)"/>
<path d="M0 0 C0.66 0 1.32 0 2 0 C2.08564209 0.57032959 2.17128418 1.14065918 2.25952148 1.72827148 C2.647928 4.29867816 3.04262829 6.86807894 3.4375 9.4375 C3.57220703 10.33533203 3.70691406 11.23316406 3.84570312 12.15820312 C3.97783203 13.01220703 4.10996094 13.86621094 4.24609375 14.74609375 C4.42676392 15.93223267 4.42676392 15.93223267 4.61108398 17.14233398 C4.82462442 19.00702617 4.82462442 19.00702617 6 20 C6.04092937 22.33297433 6.04241723 24.66705225 6 27 C2.37 27 -1.26 27 -5 27 C-4.52581532 23.9177996 -4.05119953 20.83567567 -3.57421875 17.75390625 C-3.19319909 15.26302263 -2.8207173 12.77081716 -2.45703125 10.27734375 C-2.28558594 9.11332031 -2.11414063 7.94929688 -1.9375 6.75 C-1.78152344 5.67234375 -1.62554687 4.5946875 -1.46484375 3.484375 C-1 1 -1 1 0 0 Z " fill="#E8ECF1" transform="translate(350,327)"/>
<path d="M0 0 C6.6 0 13.2 0 20 0 C20 0.33 20 0.66 20 1 C14.06 1 8.12 1 2 1 C2 19.15 2 37.3 2 56 C7.94 56 13.88 56 20 56 C19.67 56.66 19.34 57.32 19 58 C12.73 58 6.46 58 0 58 C0 38.86 0 19.72 0 0 Z " fill="#26A7E2" transform="translate(50,316)"/>
<path d="M0 0 C-0.5775 0.268125 -1.155 0.53625 -1.75 0.8125 C-2.4925 1.204375 -3.235 1.59625 -4 2 C-4.69383789 2.34200439 -5.38767578 2.68400879 -6.10253906 3.03637695 C-9.06120086 6.09820361 -8.60329573 9.56930714 -8.609375 13.60546875 C-8.62591125 14.44467361 -8.64244751 15.28387848 -8.65948486 16.14851379 C-8.70806023 18.82824958 -8.72935628 21.50741757 -8.75 24.1875 C-8.77815181 26.00458601 -8.80807813 27.82164545 -8.83984375 29.63867188 C-8.9138214 34.09240118 -8.96333743 38.54581351 -9 43 C-9.33 43 -9.66 43 -10 43 C-10.09893328 37.5190965 -10.17149865 32.03871355 -10.21972656 26.55712891 C-10.23983261 24.69277899 -10.2671218 22.82849206 -10.30175781 20.96435547 C-10.35032121 18.28337052 -10.37297838 15.60321977 -10.390625 12.921875 C-10.41127014 12.08944275 -10.43191528 11.2570105 -10.45318604 10.39935303 C-10.45466581 6.57650709 -10.45342728 4.6328532 -8.17871094 1.45800781 C-5.32972526 -0.4485523 -3.35670178 -0.30515471 0 0 Z " fill="#FDF3DB" transform="translate(211,321)"/>
<path d="M0 0 C-0.5775 0.268125 -1.155 0.53625 -1.75 0.8125 C-5.4403871 2.7602043 -7.66777481 4.50166221 -10 8 C-9.6875 5.125 -9.6875 5.125 -9 2 C-5.5647952 -0.29013653 -4.014669 -0.17842973 0 0 Z " fill="#FCE9C2" transform="translate(211,321)"/>
<path d="M0 0 C0.66 0 1.32 0 2 0 C2.33 2.97 2.66 5.94 3 9 C0.9375 7.3125 0.9375 7.3125 -1 5 C-0.75 2.25 -0.75 2.25 0 0 Z " fill="#A1AFC4" transform="translate(350,327)"/>
</svg>
