<?xml version="1.0" encoding="UTF-8"?>
<svg version="1.1" xmlns="http://www.w3.org/2000/svg" width="512" height="512">
<path d="M0 0 C168.96 0 337.92 0 512 0 C512 168.96 512 337.92 512 512 C343.04 512 174.08 512 0 512 C0 343.04 0 174.08 0 0 Z " fill="#EF8947" transform="translate(0,0)"/>
<path d="M0 0 C1.14339844 0.01933594 2.28679687 0.03867188 3.46484375 0.05859375 C49.51629335 1.90065173 90.47691153 24.58471032 121.60449219 57.46826172 C153.1219143 92.06243708 167.74771737 137.66772022 166.15234375 184.125 C163.65507702 231.25290546 142.13894068 275.98305791 107.08837891 307.56640625 C82.47815458 329.05564174 52.25603689 343.76541297 20 349 C18.95811523 349.17515137 17.91623047 349.35030273 16.84277344 349.53076172 C8.28135274 350.87605925 -0.08808963 351.38773729 -8.75 351.375 C-9.41508575 351.37412384 -10.08017151 351.37324768 -10.76541138 351.37234497 C-57.70852899 351.17089031 -99.34621568 334.2773296 -133 302 C-133.53657227 301.49065918 -134.07314453 300.98131836 -134.62597656 300.45654297 C-142.58177974 292.87213518 -149.67637383 284.99696435 -156 276 C-156.38639648 275.45263184 -156.77279297 274.90526367 -157.17089844 274.34130859 C-182.60992489 237.80336071 -191.79282444 188.47479076 -184.04296875 144.95703125 C-178.5387823 117.46895983 -167.2663967 91.15096946 -150 69 C-149.319375 68.09765625 -148.63875 67.1953125 -147.9375 66.265625 C-120.99624858 31.77265916 -79.91074615 7.33127524 -36.41040039 1.58764648 C-24.23175187 0.13203466 -12.25104629 -0.43071199 0 0 Z " fill="#FEFEFD" transform="translate(267,81)"/>
<path d="M0 0 C7.8712173 1.15122509 14.57448745 3.68859493 21.75 7.0625 C22.8033252 7.55274658 23.85665039 8.04299316 24.94189453 8.5480957 C41.25249969 16.28704268 54.80081224 26.74201069 68 39 C68.60457031 39.55042969 69.20914062 40.10085937 69.83203125 40.66796875 C83.95784603 54.06598979 94.6226257 72.12335138 102 90 C102.26264648 90.62890137 102.52529297 91.25780273 102.79589844 91.90576172 C118.15227031 129.49945083 116.33342505 170.78403394 101 208 C99.19540419 212.10531637 97.21472766 216.09905923 95 220 C94.67 220 94.34 220 94 220 C93.97812622 218.9162207 93.97812622 218.9162207 93.95581055 217.81054688 C93.4647145 195.8344325 92.53703312 174.11964548 86 153 C85.72671875 151.9790625 85.4534375 150.958125 85.171875 149.90625 C79.45072048 129.31009373 69.11638255 110.16877902 54 95 C53.26652344 94.24332031 52.53304687 93.48664063 51.77734375 92.70703125 C35.21654116 76.64388216 14.21054391 70.62843739 -8.375 70.6875 C-9.59960938 70.67138672 -10.82421875 70.65527344 -12.0859375 70.63867188 C-23.25898561 70.63275395 -33.74231739 72.46281939 -43.9375 77.125 C-44.60442871 77.42575439 -45.27135742 77.72650879 -45.95849609 78.03637695 C-73.28354316 90.76022912 -92.24731661 112.6370772 -103.68359375 140.27734375 C-113.14638878 167.03711724 -114.21294798 200.51937113 -102.32177734 226.48754883 C-90.18039619 251.57446638 -69.28948757 269.09784665 -43.3125 278.3125 C-40.55270332 279.24552735 -37.78112758 280.13290479 -35 281 C-34.00871094 281.31839844 -33.01742187 281.63679688 -31.99609375 281.96484375 C-22.26462032 284.74724227 -12.04976455 285.2133616 -2 286 C-5.34376637 293.28596968 -14.15849282 296.48130981 -21.375 299.1875 C-50.51154387 308.20595405 -84.71596532 296.69318001 -110.75 283.25 C-123.89446948 276.14565094 -135.28902127 266.31488707 -146 256 C-146.64066406 255.41089844 -147.28132813 254.82179688 -147.94140625 254.21484375 C-157.32891306 245.35007514 -164.66866524 234.16010123 -171 223 C-171.64582031 221.86949219 -172.29164063 220.73898437 -172.95703125 219.57421875 C-189.83996843 188.67565141 -196.16092197 151.41040186 -188 117 C-187.83902832 116.2668457 -187.67805664 115.53369141 -187.51220703 114.77832031 C-181.68244389 88.37918156 -169.53050194 66.31397095 -152 46 C-151.51740723 45.43619629 -151.03481445 44.87239258 -150.53759766 44.29150391 C-134.03310297 25.14906685 -113.84488199 13.16693415 -91 3 C-90.07703125 2.55785156 -89.1540625 2.11570312 -88.203125 1.66015625 C-85.47973018 0.84410355 -83.70293871 1.2277318 -81 2 C-80.90203125 2.89460938 -80.8040625 3.78921875 -80.703125 4.7109375 C-78.92674563 19.07510864 -75.19620636 28.05105239 -64.0703125 37.66796875 C-54.45804153 44.95193408 -42.45793182 43.80668338 -31 43 C-21.71180432 41.56139173 -15.02426551 37.16051487 -9 30 C-3.68522656 22.10502535 -2.03869195 14.32319885 -1 5 C-0.67631173 3.33143331 -0.34445026 1.66440467 0 0 Z " fill="#EE8C47" transform="translate(297,109)"/>
<path d="M0 0 C11.18140556 7.7366291 15.49212267 20.78008212 18.00830078 33.58056641 C18.77738223 38.5717726 18.63001907 43.58134001 18.3203125 48.60546875 C0.53338481 49.25183086 -18.47419977 47.90463425 -32.92578125 36.2890625 C-37.39222622 32.00167323 -41.40820633 27.22978676 -42.0546875 20.98046875 C-41.93152518 14.77756656 -38.78760503 10.87936403 -34.6953125 6.46484375 C-24.67370829 -3.13030922 -12.62324453 -7.06347696 0 0 Z " fill="#EF8649" transform="translate(299.6796875,265.39453125)"/>
</svg>
