<?xml version="1.0" encoding="UTF-8"?>
<svg version="1.1" xmlns="http://www.w3.org/2000/svg" width="300" height="301">
<path d="M0 0 C0.9175708 0.00757324 1.8351416 0.01514648 2.78051758 0.02294922 C17.33630985 0.37542709 28.95888166 6.52152188 39.57421875 16.26953125 C42.78258022 19.66122767 45.25771031 23.42703277 47.625 27.4375 C48.1096875 26.72464844 48.594375 26.01179688 49.09375 25.27734375 C58.04223175 12.49134002 69.0665282 3.90040881 84.625 0.4375 C101.27302696 -1.11598966 115.09884483 1.11064501 128.625 11.4375 C133.71891448 15.92201981 138.17123714 20.5811195 141.625 26.4375 C144.22972808 23.93696104 146.60088415 21.30960241 148.9375 18.5625 C157.23967204 9.10432932 168.10867813 1.47044891 181.01611328 0.20263672 C198.49571435 -0.70874596 212.02182783 1.56171478 225.625 13.4375 C235.06932511 22.08089294 242.32266345 35.14063255 242.9609375 48.07421875 C243.26369343 64.88296334 239.68648492 79.31024762 227.6875 91.875 C224.01205252 95.32028247 220.02521023 98.00334115 215.625 100.4375 C216.4603125 101.05625 216.4603125 101.05625 217.3125 101.6875 C230.22574846 111.45968803 239.58918478 122.04750884 242.625 138.4375 C244.25516263 154.39280421 241.67150922 168.55051663 231.625 181.4375 C226.82531496 186.82288353 221.89430288 191.80790359 215.625 195.4375 C216.33785156 195.9221875 217.05070312 196.406875 217.78515625 196.90625 C230.58830104 205.86672819 239.13112601 216.87237415 242.625 232.4375 C243.69671446 243.45964315 243.38902321 254.29827954 238.625 264.4375 C238.274375 265.21996094 237.92375 266.00242187 237.5625 266.80859375 C231.27505932 279.40530651 220.13546216 288.91991857 206.97265625 293.66015625 C205.81056641 294.04494141 205.81056641 294.04494141 204.625 294.4375 C203.408125 294.85 202.19125 295.2625 200.9375 295.6875 C186.56615792 298.83303471 173.20188121 295.62741231 160.75 288.1875 C153.44661498 283.19159281 147.13269475 277.0809824 142.625 269.4375 C142.07585937 270.14132812 141.52671875 270.84515625 140.9609375 271.5703125 C132.71336691 281.69358477 124.77821835 288.51868263 112.625 293.4375 C111.77292969 293.79585938 110.92085937 294.15421875 110.04296875 294.5234375 C97.2714174 299.1406816 83.74128964 296.71011893 71.625 291.4375 C60.88293389 285.92908364 53.91124703 278.59220674 47.625 268.4375 C47.15191406 269.13875 46.67882812 269.84 46.19140625 270.5625 C37.12169626 283.57479348 26.28181316 292.22368223 10.58984375 295.9609375 C-4.02509383 298.3101106 -17.63565477 295.28955322 -30.03515625 287.22265625 C-41.49130816 278.48231998 -48.13035147 268.06391015 -52.375 254.4375 C-52.56707031 253.82261719 -52.75914063 253.20773438 -52.95703125 252.57421875 C-55.66725331 238.71915829 -52.26670452 225.53193018 -45.125 213.5625 C-40.42369291 206.68504203 -34.79607775 200.38225893 -27.375 196.4375 C-26.715 196.4375 -26.055 196.4375 -25.375 196.4375 C-25.375 195.7775 -25.375 195.1175 -25.375 194.4375 C-26.46167969 194.06625 -26.46167969 194.06625 -27.5703125 193.6875 C-37.26297284 189.36765138 -44.91253289 179.39858922 -48.87890625 169.796875 C-50.14720342 166.37628939 -51.27988717 162.91742465 -52.375 159.4375 C-52.705 158.4475 -53.035 157.4575 -53.375 156.4375 C-54.74016834 139.04135481 -50.65933821 124.95310119 -39.375 111.4375 C-35.3450327 107.34305323 -30.98175409 103.8537446 -26.375 100.4375 C-27.22771484 99.80134766 -27.22771484 99.80134766 -28.09765625 99.15234375 C-41.13819423 89.24675981 -50.21297559 77.99162777 -53.375 61.4375 C-55.05101367 45.84741062 -51.08997534 31.95902378 -41.375 19.4375 C-30.69054145 6.63261904 -16.61700576 -0.19377536 0 0 Z M47.625 78.4375 C47.09132813 79.2109375 46.55765625 79.984375 46.0078125 80.78125 C41.4738939 87.11932307 37.1245018 92.14024867 30.7890625 96.81640625 C28.88257654 98.24455006 27.25498387 99.70761389 25.625 101.4375 C26.47771484 101.96537109 26.47771484 101.96537109 27.34765625 102.50390625 C35.20725038 107.52932287 41.02309986 112.73374104 45.58203125 120.93359375 C45.92621094 121.42988281 46.27039063 121.92617187 46.625 122.4375 C47.285 122.4375 47.945 122.4375 48.625 122.4375 C49.97137491 120.65032912 49.97137491 120.65032912 51.3125 118.375 C56.19457218 110.84502426 61.82807461 105.83213068 69.625 101.4375 C66.99763246 98.70313559 64.31990687 96.40645023 61.25 94.1875 C56.79670792 90.7816105 53.75736116 87.0411217 50.625 82.4375 C49.63061102 81.09997679 48.63205299 79.76551433 47.625 78.4375 Z M141.625 78.4375 C141.2846875 78.994375 140.944375 79.55125 140.59375 80.125 C135.04409949 88.86274761 128.71231967 95.4104721 119.625 100.4375 C121.62849156 101.95365578 123.63657387 103.44550599 125.703125 104.875 C131.31864493 108.9149424 135.10197535 113.3785245 138.99609375 119.08203125 C140.55562095 121.48771739 140.55562095 121.48771739 142.625 123.4375 C143.01171875 122.84582031 143.3984375 122.25414062 143.796875 121.64453125 C145.38835267 119.22973963 147.00399113 116.8325406 148.625 114.4375 C149.2025 113.57125 149.78 112.705 150.375 111.8125 C153.36251039 108.65901681 156.78144901 106.39809569 160.3828125 103.98828125 C162.69141743 102.49063671 162.69141743 102.49063671 164.625 100.4375 C164.00753906 100.04820313 163.39007813 99.65890625 162.75390625 99.2578125 C154.13710319 93.56573863 148.0009987 86.4718302 141.625 78.4375 Z M46.625 173.4375 C45.31354087 175.19181198 45.31354087 175.19181198 44 177.4375 C39.17337784 184.89468995 33.58334144 190.45832928 25.625 194.4375 C28.39798961 197.33188777 31.28600799 199.73703397 34.5 202.125 C39.95371784 206.41869514 43.53583701 211.25917401 46.625 217.4375 C47.285 217.4375 47.945 217.4375 48.625 217.4375 C50.07791527 215.58750304 50.07791527 215.58750304 51.5 213.25 C55.17775972 207.44453112 58.70708054 203.10603867 64.375 199.125 C65.35984375 198.42761719 66.3446875 197.73023438 67.359375 197.01171875 C68.10703125 196.49222656 68.8546875 195.97273438 69.625 195.4375 C68.88121094 194.84582031 68.13742188 194.25414062 67.37109375 193.64453125 C52.45811443 181.65899311 52.45811443 181.65899311 48.625 173.4375 C47.965 173.4375 47.305 173.4375 46.625 173.4375 Z M141.625 173.4375 C140.41367517 175.10798037 139.23179338 176.79983369 138.0625 178.5 C133.11833038 185.38462328 127.88231045 190.12847192 120.625 194.4375 C120.625 195.0975 120.625 195.7575 120.625 196.4375 C122.41217088 197.78387491 122.41217088 197.78387491 124.6875 199.125 C132.21747574 204.00707218 137.23036932 209.64057461 141.625 217.4375 C143.98649494 215.19656186 145.88467118 212.80678287 147.8125 210.1875 C152.47307347 204.13762239 157.83940518 199.04234725 164.625 195.4375 C162.53802568 193.86748262 160.4465125 192.30879473 158.328125 190.78125 C152.42499635 186.34450363 148.25254631 181.68070741 144.12109375 175.5625 C143.62738281 174.86125 143.13367188 174.16 142.625 173.4375 C142.295 173.4375 141.965 173.4375 141.625 173.4375 Z " fill="#DF0326" transform="translate(55.375,1.5625)"/>
<path d="M0 0 C0.7734375 0.3403125 0.7734375 0.3403125 1.5625 0.6875 C1.66444982 7.90986996 1.73419539 15.1320523 1.78222656 22.35498047 C1.80226324 24.80882706 1.82950032 27.26262637 1.86425781 29.71630859 C1.91312498 33.25630403 1.9355492 36.79566468 1.953125 40.3359375 C1.97377014 41.42176117 1.99441528 42.50758484 2.01568604 43.62631226 C2.01818434 52.22888348 0.08171575 58.76048722 -4.5625 66 C-11.09622667 72.10761406 -18.96682691 75.02687842 -27.81640625 74.8984375 C-34.98947443 74.32117121 -41.44680019 70.82749424 -46.4375 65.6875 C-51.52911228 57.59637356 -53.42629015 50.21478396 -52.4375 40.6875 C-50.13542914 32.83799984 -45.06191698 27.31551734 -38.4375 22.6875 C-34.25825652 20.50888245 -30.25415604 20.32120961 -25.625 20.3125 C-24.95146484 20.28800781 -24.27792969 20.26351562 -23.58398438 20.23828125 C-17.42004267 20.2028902 -15.57030785 21.62109608 -9.4375 24.6875 C-9.4375 17.4275 -9.4375 10.1675 -9.4375 2.6875 C-2.4375 -0.3125 -2.4375 -0.3125 0 0 Z " fill="#FEF9FA" transform="translate(270.4375,102.3125)"/>
<path d="M0 0 C5.30864608 2.97648362 8.60665682 6.21059642 11.5625 11.5 C12.490625 13.1396875 12.490625 13.1396875 13.4375 14.8125 C15.83571606 22.67331931 15.45390181 31.17271165 11.5625 38.5 C7.47566945 44.3155129 2.68521877 49.82665649 -4.4375 51.5 C-12.49298394 52.37358741 -20.56574074 52.85869273 -27.54296875 48.109375 C-34.56702531 42.14254757 -38.56830307 36.29060105 -39.75 27.05859375 C-40.13527277 19.36517813 -37.83479921 12.34714065 -33.1875 6.1875 C-23.83222664 -2.95515351 -12.17869974 -5.61742526 0 0 Z " fill="#FEF9F9" transform="translate(257.4375,30.5)"/>
<path d="M0 0 C5.84577924 4.46496586 10.18736167 9.79476264 12 17 C13.15839988 26.0258657 11.60952197 32.75403673 6.4921875 40.19140625 C2.49155657 45.24336578 -1.66659322 48.52127507 -8 50 C-18.2406956 51.01128322 -25.12452558 50.26877568 -33.1875 43.8125 C-38.27687926 39.16696195 -41.6589475 33.087039 -42.23828125 26.14453125 C-42.39649346 19.04163577 -42.10896632 13.89312275 -38 8 C-37.278125 6.948125 -36.55625 5.89625 -35.8125 4.8125 C-25.90188623 -5.09811377 -12.18901615 -7.07042603 0 0 Z " fill="#FEF8F9" transform="translate(71,221)"/>
<path d="M0 0 C5.60357062 3.72497894 9.47274483 8.30548412 11.58203125 14.7890625 C13.01509985 22.3695936 13.24008174 30.68285271 9.125 37.3984375 C8.75375 37.92695313 8.3825 38.45546875 8 39 C7.4225 39.886875 6.845 40.77375 6.25 41.6875 C-0.0352769 48.14736793 -6.2822638 50.13790011 -15.125 50.4375 C-22.42868456 50.49412457 -27.49933304 48.87348811 -33 44 C-35.30349869 41.48971541 -37.24964865 38.92119448 -39 36 C-39.37253906 35.42894531 -39.74507813 34.85789063 -40.12890625 34.26953125 C-42.5648157 27.92305864 -42.05878983 18.61958383 -40.16015625 12.12890625 C-36.71604622 5.4378238 -31.09182934 0.80842848 -24.6875 -2.9375 C-15.87713566 -5.47607956 -8.0031458 -4.41129026 0 0 Z " fill="#FEF7F8" transform="translate(165,221)"/>
<path d="M0 0 C5.8079772 4.08153486 11.34072339 8.87939574 13 16 C13.81984404 24.35377926 14.4483017 33.04810855 9 40 C3.88966565 45.76550542 -1.3760459 50.57461832 -9.26953125 51.30078125 C-19.22338972 51.33370471 -26.00515684 50.52266427 -33.4609375 43.6796875 C-39.95469998 36.59258632 -40.46277115 28.94350345 -40.2734375 19.703125 C-39.72554266 12.28306347 -36.34553626 7.52799755 -30.97265625 2.54296875 C-22.00992488 -4.4674845 -10.08729321 -5.3571948 0 0 Z " fill="#FEF8F9" transform="translate(164,31)"/>
<path d="M0 0 C6.69090392 4.048278 10.22420024 9.15386131 13.171875 16.3125 C13.859375 19.125 13.859375 19.125 13.859375 24.125 C-0.330625 24.125 -14.520625 24.125 -29.140625 24.125 C-27.0573989 32.45790442 -25.88571372 34.62827418 -19.140625 39.125 C-14.27646372 39.85632495 -9.60786343 39.7572663 -5.203125 37.4375 C-2.00350576 35.40387183 -2.00350576 35.40387183 -0.890625 32.375 C-0.024375 31.26125 -0.024375 31.26125 0.859375 30.125 C4.55709478 29.67862846 8.15247719 29.84179049 11.859375 30.125 C11.52612922 36.78991565 7.95091772 41.31643602 3.15234375 45.67578125 C-3.49671968 50.76389074 -10.9233001 52.09390846 -19.140625 51.125 C-27.3160403 49.08724723 -32.68703527 45.08505172 -37.45703125 38.234375 C-41.3443775 31.13692051 -41.16185604 22.94134525 -40.140625 15.125 C-37.63389459 7.99820078 -32.7529934 2.72290633 -26.140625 -0.875 C-17.57678216 -4.27242055 -8.21957815 -4.3197783 0 0 Z " fill="#FDF6F8" transform="translate(164.140625,125.875)"/>
<path d="M0 0 C7.02847486 4.04349006 11.84121027 9.28524712 14.90625 16.8671875 C14.90625 18.5171875 14.90625 20.1671875 14.90625 21.8671875 C11.27625 21.8671875 7.64625 21.8671875 3.90625 21.8671875 C3.3184375 20.5059375 3.3184375 20.5059375 2.71875 19.1171875 C0.26620786 14.71952573 -2.32082358 12.45816297 -7.09375 10.8671875 C-11.72897786 10.32861817 -15.17281346 10.41540731 -19.40625 12.4921875 C-23.33333642 15.96263596 -25.80387457 19.04315026 -26.63964844 24.30224609 C-26.6605957 25.52766113 -26.68154297 26.75307617 -26.703125 28.015625 C-26.71966125 28.67301666 -26.73619751 29.33040833 -26.75323486 30.00772095 C-26.80141603 32.08597426 -26.82301614 34.16349776 -26.84375 36.2421875 C-26.87193516 37.66019238 -26.90186613 39.07816371 -26.93359375 40.49609375 C-27.00716292 43.95296791 -27.05692098 47.40970423 -27.09375 50.8671875 C-30.72375 50.8671875 -34.35375 50.8671875 -38.09375 50.8671875 C-38.21864723 46.49309446 -38.30868781 42.1199836 -38.3684082 37.74462891 C-38.39333838 36.26072071 -38.42729625 34.77693255 -38.47094727 33.29345703 C-38.77547418 22.66725921 -38.00228017 14.58259934 -30.8125 6.2109375 C-30.0803125 5.6025 -29.348125 4.9940625 -28.59375 4.3671875 C-27.8615625 3.738125 -27.129375 3.1090625 -26.375 2.4609375 C-19.0872312 -2.63051742 -8.28004483 -3.0318346 0 0 Z " fill="#FEF8F9" transform="translate(67.09375,124.1328125)"/>
<path d="M0 0 C4.14327184 2.25631664 6.69711307 5.08172615 8.8125 9.3125 C9.43254936 14.65378233 9.76673931 19.7035104 6.6875 24.3125 C3.3984142 28.12235771 0.27860149 30.01804012 -4.8046875 30.625 C-9.28671966 30.81934286 -12.48116014 30.62072103 -16.625 28.8125 C-21.03043394 24.51451567 -23.34255028 19.99661104 -23.8125 13.8125 C-23.55294529 8.45454916 -20.94292933 4.97339908 -17.1875 1.3125 C-11.49908849 -2.56046103 -6.21233437 -2.83531401 0 0 Z " fill="#DF0727" transform="translate(252.1875,40.6875)"/>
<path d="M0 0 C3.95147334 2.62587224 6.24788053 5.53661034 7.765625 10.08984375 C8.47819616 16.4011883 7.44177232 20.86462807 3.765625 26.08984375 C0.02154988 29.83391887 -3.11166847 30.38696428 -8.234375 30.58984375 C-13.35158494 30.39984833 -16.41507328 29.71818038 -20.234375 26.08984375 C-24.34393906 21.65584042 -24.96539388 17.70376076 -24.7578125 11.8515625 C-23.90147752 7.33343687 -21.59368163 4.16407161 -18.234375 1.08984375 C-13.09586663 -2.22673065 -5.58450975 -2.27480904 0 0 Z " fill="#DE0626" transform="translate(64.234375,229.91015625)"/>
<path d="M0 0 C4.47040864 2.23520432 8.84006214 5.36762264 11 10 C11.88403779 15.59634359 11.77283326 20.33543605 9.375 25.5 C4.85174262 30.26132356 1.67811209 32.26159559 -4.9375 32.625 C-10.18420006 32.45554136 -12.97882324 31.36414427 -16.6953125 27.703125 C-20.27897257 23.02505378 -20.59757075 18.8579884 -20.51953125 13.0546875 C-19.6702302 8.06105276 -16.89089243 5.084244 -13 2 C-8.77557644 -0.55821666 -4.82266098 -0.67214787 0 0 Z " fill="#DE0626" transform="translate(155,39)"/>
<path d="M0 0 C1.03769531 -0.02578125 2.07539063 -0.0515625 3.14453125 -0.078125 C7.87177889 0.43161672 10.47495909 2.63246455 14 5.6875 C17.04613303 9.53372494 16.81648575 13.6719411 16.6171875 18.40234375 C16.04604861 22.18743692 14.73031597 24.41657649 12.1875 27.25 C11.671875 27.848125 11.15625 28.44625 10.625 29.0625 C6.88303798 32.15368602 1.80798248 31.6957959 -2.7890625 31.66796875 C-7.39876648 31.03070993 -10.02748463 28.88552904 -12.8125 25.25 C-15.8630533 20.3357981 -15.77330832 14.82268826 -14.8125 9.25 C-11.03293886 2.86520612 -7.35651214 0.10885098 0 0 Z " fill="#DE0425" transform="translate(149.8125,228.75)"/>
<path d="M0 0 C4.86108919 2.29796944 7.70203056 5.13891081 10 10 C10.77379561 15.29813119 10.67768515 19.56643525 8.375 24.4375 C4.04565669 29.10863357 0.92123974 31.23861982 -5.5 31.5 C-10.43370215 31.28578227 -13.36420505 30.54711702 -17 27 C-20.26615567 22.4642415 -21.77572495 17.84493455 -21.5234375 12.24609375 C-20.40893387 7.46370877 -17.23824735 3.43753543 -13.1328125 0.80078125 C-8.88551605 -0.79389965 -4.45215498 -0.51694107 0 0 Z " fill="#DE0525" transform="translate(250,134)"/>
<path d="M0 0 C2.88135396 1.3666696 4.60740842 2.82008322 7 5 C7 5.33 7 5.66 7 6 C-1.25 6 -9.5 6 -18 6 C-11.75880735 -0.24119265 -8.60525317 -1.09929745 0 0 Z " fill="#DE0A24" transform="translate(156,134)"/>
</svg>
