<?xml version="1.0" encoding="UTF-8"?>
<svg version="1.1" xmlns="http://www.w3.org/2000/svg" width="960" height="895">
<path d="M0 0 C1.11903876 -0.00445668 1.11903876 -0.00445668 2.26068437 -0.0090034 C4.7683138 -0.017696 7.27589551 -0.01919919 9.78353882 -0.02069092 C11.57903648 -0.02531912 13.37453316 -0.03034379 15.17002869 -0.03573608 C20.05719989 -0.04887193 24.94435734 -0.0553087 29.83154345 -0.05974674 C32.88991893 -0.06267883 35.94829067 -0.06678416 39.00666428 -0.07125092 C48.58923787 -0.08493616 58.1718029 -0.09459473 67.75438559 -0.09845281 C78.78813851 -0.10291999 89.82176672 -0.120401 100.85548174 -0.1494534 C109.39756571 -0.17115717 117.93961484 -0.1811619 126.48172605 -0.18249393 C131.57565122 -0.18353682 136.66945932 -0.18933255 141.76335526 -0.20731354 C146.56833119 -0.22394241 151.37310401 -0.22587881 156.17809868 -0.21717453 C157.92865358 -0.2164117 159.67922005 -0.22064552 161.42974663 -0.23063278 C197.58470724 -0.42456835 230.51582853 12.07571249 256.73031616 37.14044189 C257.40320679 37.75016846 258.07609741 38.35989502 258.76937866 38.98809814 C277.72458718 56.7727659 289.32466868 83.46562245 291.73031616 109.14044189 C291.692389 111.66133426 291.65095301 114.18217731 291.60531616 116.70294189 C291.83892544 121.05205078 292.067454 122.53738685 295.32797241 125.50372314 C297.62737505 126.88874345 299.85902587 128.15291555 302.24594116 129.35528564 C307.32310612 131.9564789 311.41294809 135.45092637 315.73031616 139.14044189 C316.53984741 139.80430908 317.34937866 140.46817627 318.18344116 141.15216064 C340.18492803 159.86726189 353.63084306 187.62528933 356.73031616 216.14044189 C357.39602354 230.65783274 357.35579637 245.01312145 353.73031616 259.14044189 C353.43230103 260.31050781 353.43230103 260.31050781 353.12826538 261.50421143 C345.78164386 289.49841644 332.36196916 312.00142249 312.73031616 333.14044189 C312.17988647 333.74501221 311.62945679 334.34958252 311.06234741 334.97247314 C288.25825171 359.01530985 250.68991087 376.14260081 217.55909729 377.24606323 C214.40310947 377.29202755 211.24754109 377.32345495 208.09126282 377.33967209 C205.97122369 377.3516065 203.85137532 377.37109095 201.73141479 377.39279175 C195.70946662 377.45394446 189.68754662 377.50843051 183.66537476 377.54180908 C179.96661075 377.56284918 176.26821102 377.59821272 172.56965637 377.64256668 C171.16960452 377.65663772 169.76948843 377.66542882 168.36936951 377.66862106 C156.03094312 377.38160796 156.03094312 377.38160796 145.64546204 383.18580627 C143.11223153 387.09400627 142.50622996 390.64890768 141.75790405 395.19732666 C141.59580728 396.11254121 141.4337105 397.02775576 141.2667017 397.97070408 C140.73418207 401.02421136 140.22881057 404.08120291 139.73031616 407.14044189 C139.55698132 408.1965202 139.38364647 409.2525985 139.20505905 410.34067917 C138.06188614 417.3554081 136.96400326 424.37674598 135.88036919 431.40089226 C135.2744241 435.32407378 134.66302373 439.24638356 134.04966736 443.16841125 C132.30944526 454.30156771 130.57531228 465.43565131 128.85458374 476.57183838 C127.89766707 482.76440935 126.93357227 488.95581866 125.96152645 495.14603335 C125.45015694 498.40467855 124.94370063 501.66396838 124.44396782 504.92442131 C123.88899188 508.54341765 123.32169474 512.1602825 122.7515564 515.7769165 C122.59096237 516.84444153 122.43036835 517.91196655 122.26490784 519.01184082 C120.88696935 527.61325566 118.83990917 532.95636366 111.73031616 538.14044189 C107.90712548 539.41483879 104.29981814 539.30424846 100.31503296 539.31744385 C99.0267308 539.32730064 99.0267308 539.32730064 97.71240234 539.33735657 C94.86811231 539.35707875 92.02387504 539.36874931 89.17953491 539.37872314 C88.20787699 539.38279867 87.23621906 539.3868742 86.23511696 539.39107323 C81.09297524 539.41192861 75.95086017 539.42623306 70.8086853 539.43560791 C65.49898298 539.44667571 60.18969934 539.48108151 54.88014507 539.52077961 C50.79574303 539.54692826 46.71144105 539.55529816 42.62696266 539.55888939 C40.66975894 539.56375928 38.7125598 539.57538471 36.75543785 539.59392738 C34.01454873 539.61828319 31.27474723 539.61736044 28.53378296 539.6104126 C27.72785202 539.62322266 26.92192108 539.63603271 26.09156799 539.64923096 C20.84400395 539.60082571 17.91546883 538.57622811 13.73031616 535.14044189 C9.99803435 530.78611312 10.4708276 526.57842675 10.73031616 521.14044189 C11.04422709 518.05574877 11.51475484 515.00816082 12.01547241 511.9487915 C12.1520224 511.07940948 12.28857239 510.21002747 12.42926025 509.31430054 C12.87722899 506.47271366 13.33493245 503.63279016 13.79281616 500.79278564 C14.10730466 498.81034267 14.42117877 496.82780215 14.73446655 494.84516907 C15.55691774 489.650938 16.38766131 484.45806685 17.22018433 479.26544189 C18.0697548 473.9569987 18.91141316 468.64730186 19.75375366 463.33770752 C21.4049005 452.93738233 23.06481728 442.5384777 24.73031616 432.14044189 C23.52619583 432.13457565 22.3220755 432.12870941 21.08146667 432.12266541 C9.73674461 432.06546584 -1.60778526 431.99271854 -12.95231152 431.90472698 C-18.78473213 431.85998927 -24.61708235 431.82074049 -30.44961548 431.79400635 C-36.07777052 431.76800754 -41.70565513 431.72762904 -47.33364296 431.67725563 C-49.48140412 431.66056381 -51.62921207 431.64906398 -53.77702904 431.64282799 C-56.78422814 431.63321225 -59.79073172 431.60518263 -62.79776001 431.57281494 C-64.1313279 431.57496758 -64.1313279 431.57496758 -65.49183655 431.5771637 C-71.2667137 431.4891902 -74.55809873 430.4646577 -79.01968384 426.64044189 C-82.21355284 422.8077991 -81.50174663 417.82442368 -81.26968384 413.14044189 C-80.89236533 409.58875128 -80.34242196 406.07387036 -79.77182007 402.5486145 C-79.61033863 401.51572174 -79.4488572 400.48282898 -79.28248239 399.41863644 C-78.74148418 395.96920475 -78.1906365 392.52142073 -77.63980103 389.07354736 C-77.24801673 386.58875235 -76.85684343 384.10386093 -76.4662323 381.61888123 C-75.6207878 376.24931856 -74.77109074 370.88045615 -73.91756439 365.5121727 C-72.66157907 357.61245475 -71.41355158 349.71149453 -70.16725925 341.81024231 C-68.11581871 328.80584508 -66.05822498 315.80242919 -63.99673462 302.79962158 C-62.04492942 290.48855744 -60.09552828 278.17711769 -58.15005493 265.86505127 C-58.03274011 265.12263092 -57.9154253 264.38021057 -57.79455549 263.61529264 C-56.96714408 258.3789015 -56.13988522 253.14248627 -55.31265259 247.90606689 C-54.36512917 241.90826737 -53.41752305 235.91048093 -52.46975708 229.91271973 C-52.35256512 229.17107666 -52.23537316 228.42943359 -52.11462992 227.66531649 C-50.45889227 217.1877665 -48.80015419 206.71069505 -47.1392445 196.23396376 C-46.07226202 189.50331465 -45.0058128 182.77258106 -43.93960571 176.04180908 C-43.76432427 174.93534827 -43.76432427 174.93534827 -43.58550179 173.80653471 C-40.21420821 152.52293973 -36.87373425 131.23472014 -33.56148355 109.94185766 C-32.73780644 104.647321 -31.91259965 99.35302474 -31.08632278 94.0588932 C-30.97177648 93.32490842 -30.85723017 92.59092364 -30.73921277 91.8346969 C-30.28201008 88.90520263 -29.82477213 85.9757139 -29.36734858 83.04625411 C-28.04576374 74.58203032 -26.72976611 66.1169861 -25.42362398 57.65036502 C-24.52336691 51.8180278 -23.61372638 45.98717921 -22.70063305 40.15683699 C-22.32994765 37.77929188 -21.96250777 35.40123815 -21.59856129 33.02265215 C-21.10261412 29.78375662 -20.59530601 26.54683727 -20.08517456 23.31015015 C-19.87435702 21.90509163 -19.87435702 21.90509163 -19.65928054 20.4716481 C-18.39128074 12.56271508 -16.6084327 6.52837843 -10.26968384 1.14044189 C-6.77327908 -0.02502636 -3.63682052 -0.00450505 0 0 Z " fill="#002F87" transform="translate(353.2696838378906,-0.14044189453125)"/>
<path d="M0 0 C8.66603367 3.71680902 15.81043542 9.01405034 23 15 C23.52416504 15.43618652 24.04833008 15.87237305 24.58837891 16.32177734 C47.44985916 35.63962056 61.76817627 63.26722165 65 93 C65.66570738 107.51739084 65.62548021 121.87267956 62 136 C61.70198486 137.17006592 61.70198486 137.17006592 61.39794922 138.36376953 C54.05132769 166.35797455 40.631653 188.86098059 21 210 C20.44957031 210.60457031 19.89914062 211.20914063 19.33203125 211.83203125 C-3.47206446 235.87486796 -41.04040529 253.00215892 -74.17121887 254.10562134 C-77.32720669 254.15158566 -80.48277507 254.18301306 -83.63905334 254.19923019 C-85.75909247 254.2111646 -87.87894084 254.23064905 -89.99890137 254.25234985 C-96.02084954 254.31350256 -102.04276955 254.36798861 -108.06494141 254.40136719 C-111.76370541 254.42240729 -115.46210514 254.45777082 -119.16065979 254.50212479 C-120.56071164 254.51619582 -121.96082774 254.52498692 -123.36094666 254.52817917 C-135.69937304 254.24116607 -135.69937304 254.24116607 -146.08485413 260.04536438 C-148.61808464 263.95356438 -149.2240862 267.50846578 -149.97241211 272.05688477 C-150.13450889 272.97209931 -150.29660566 273.88731386 -150.46361446 274.83026218 C-150.99613409 277.88376946 -151.50150559 280.94076101 -152 284 C-152.17333485 285.0560783 -152.34666969 286.1121566 -152.52525711 287.20023727 C-153.66843002 294.21496621 -154.7663129 301.23630408 -155.84994698 308.26045036 C-156.45589206 312.18363189 -157.06729243 316.10594167 -157.6806488 320.02796936 C-159.42087091 331.16112582 -161.15500389 342.29520942 -162.87573242 353.43139648 C-163.83264909 359.62396746 -164.79674389 365.81537677 -165.76878971 372.00559145 C-166.28015922 375.26423665 -166.78661553 378.52352648 -167.28634834 381.78397942 C-167.84132428 385.40297575 -168.40862142 389.01984061 -168.97875977 392.63647461 C-169.13935379 393.70399963 -169.29994781 394.77152466 -169.46540833 395.87139893 C-170.84334682 404.47281376 -172.89040699 409.81592177 -180 415 C-183.82319068 416.27439689 -187.43049802 416.16380656 -191.4152832 416.17700195 C-192.27415131 416.18357315 -193.13301941 416.19014435 -194.01791382 416.19691467 C-196.86220385 416.21663685 -199.70644112 416.22830741 -202.55078125 416.23828125 C-203.52243917 416.24235678 -204.4940971 416.2464323 -205.4951992 416.25063133 C-210.63734093 416.27148672 -215.779456 416.28579117 -220.92163086 416.29516602 C-226.23133318 416.30623382 -231.54061682 416.34063961 -236.85017109 416.38033772 C-240.93457314 416.40648637 -245.01887511 416.41485626 -249.1033535 416.41844749 C-251.06055723 416.42331739 -253.01775637 416.43494282 -254.97487831 416.45348549 C-257.71576743 416.4778413 -260.45556893 416.47691855 -263.1965332 416.4699707 C-264.40542961 416.48918579 -264.40542961 416.48918579 -265.63874817 416.50878906 C-270.88631222 416.46038382 -273.81484733 415.43578622 -278 412 C-281.73251324 407.64540122 -281.25598935 403.43788573 -281 398 C-280.69507694 394.95799664 -280.23624448 391.95253351 -279.74658203 388.93530273 C-279.61324463 388.07877106 -279.47990723 387.22223938 -279.3425293 386.3397522 C-278.90435471 383.53659382 -278.45631689 380.73511634 -278.0078125 377.93359375 C-277.69822019 375.97029873 -277.38913631 374.00692347 -277.08053589 372.04347229 C-276.43411808 367.94015437 -275.78307093 363.83760766 -275.12841797 359.7355957 C-274.29183406 354.4925961 -273.46451899 349.24818768 -272.64038277 344.00321865 C-272.00326822 339.95260627 -271.36240384 335.90259447 -270.72030258 331.85276985 C-270.41404578 329.91971748 -270.10866708 327.98652578 -269.80420303 326.05319023 C-269.37715441 323.3466377 -268.94534525 320.64088654 -268.51220703 317.93530273 C-268.38848724 317.14598862 -268.26476746 316.3566745 -268.13729858 315.54344177 C-267.55353437 311.92673715 -266.88077957 308.38053484 -265.97187805 304.83049011 C-265.12034804 301.47433109 -264.46932607 298.19501362 -263.93774414 294.77685547 C-263.75276871 293.59943283 -263.56779327 292.42201019 -263.37721252 291.20890808 C-263.18183395 289.94114029 -262.98645538 288.6733725 -262.78515625 287.3671875 C-262.57172764 285.99969037 -262.35796833 284.63224482 -262.14390564 283.2648468 C-261.68576001 280.33405608 -261.22985056 277.4029294 -260.77563477 274.4715271 C-260.05617168 269.82966432 -259.3302574 265.18882363 -258.60351562 260.5480957 C-256.41093569 246.53691938 -254.23225432 232.52363127 -252.07342815 218.50721359 C-251.07905 212.052063 -250.07979249 205.59767901 -249.07737446 199.14377213 C-248.3639526 194.54745528 -247.65767908 189.95011389 -246.95674992 185.35187626 C-246.51788195 182.48367495 -246.07247874 179.61651576 -245.6253376 176.74959373 C-245.32358369 174.80200538 -245.02967571 172.85320635 -244.73606873 170.90437317 C-242.09648573 154.09648573 -242.09648573 154.09648573 -237.5625 149.5625 C-236.716875 149.046875 -235.87125 148.53125 -235 148 C-234.1967202 147.46505165 -234.1967202 147.46505165 -233.37721252 146.91929626 C-229.78641423 145.530692 -226.19849016 145.71688287 -222.40209961 145.72875977 C-221.53470657 145.72353302 -220.66731354 145.71830627 -219.77363586 145.71292114 C-217.88904058 145.70268183 -216.00441703 145.69690086 -214.11979485 145.69503975 C-211.11908338 145.69136552 -208.11869939 145.67460224 -205.11805725 145.65428162 C-196.58552208 145.5990233 -188.0529359 145.56844724 -179.52026367 145.54370117 C-174.29594738 145.52763953 -169.07185629 145.497214 -163.84765816 145.45893669 C-161.87334182 145.44742979 -159.8989848 145.44135762 -157.92463493 145.44125557 C-141.4250868 145.44009522 -125.32191035 144.04931603 -109.4375 139.3125 C-108.57382812 139.05903809 -107.71015625 138.80557617 -106.8203125 138.54443359 C-83.54546473 131.44356038 -63.65472984 118.66390317 -46 102 C-45.32453125 101.37738281 -44.6490625 100.75476563 -43.953125 100.11328125 C-17.46053881 74.83935403 -4.30575978 38.7807189 -1.27783203 3.04345703 C-1 1 -1 1 0 0 Z " fill="#006FDF" transform="translate(645,123)"/>
<path d="M0 0 C1.27078903 -0.00990463 2.54157806 -0.01980927 3.85087585 -0.03001404 C5.24714758 -0.02577613 6.64341836 -0.02121828 8.03968811 -0.01637268 C9.52048252 -0.02207989 11.00127254 -0.02904551 12.48205566 -0.03717041 C16.49970897 -0.05510333 20.51714379 -0.05393017 24.53482509 -0.04822803 C27.9055644 -0.04512849 31.27626221 -0.05123892 34.6469956 -0.05726677 C42.62200388 -0.07131824 50.59690514 -0.06975275 58.57191467 -0.05836487 C66.74235466 -0.046954 74.91246368 -0.06083836 83.08285993 -0.08776134 C90.13383607 -0.11010818 97.18470984 -0.11651146 104.23571879 -0.11068493 C108.42997133 -0.10735039 112.62401327 -0.10948873 116.8182354 -0.12693596 C145.07316303 -0.23310816 173.38042074 1.07450581 198.58680725 15.38768005 C199.9546603 51.93975321 182.75371447 86.85689221 158.58680725 113.38768005 C158.13644104 113.88864197 157.68607483 114.38960388 157.22206116 114.90574646 C132.72174434 141.84120382 96.64553304 158.26289573 60.58680725 161.38768005 C57.47237451 161.51437173 54.36342408 161.52168311 51.24671936 161.51365662 C49.91803078 161.51645882 49.91803078 161.51645882 48.5625 161.51931763 C46.65558091 161.52329433 44.74865713 161.52539393 42.84173393 161.52577972 C37.72218874 161.53012168 32.60276599 161.56121053 27.48329163 161.5868988 C20.98968133 161.6172767 14.49626689 161.63999387 8.00257874 161.63816833 C2.73351487 161.63738025 -2.53496548 161.66077544 -7.80387688 161.70005035 C-9.80402947 161.71048655 -11.80424957 161.712052 -13.80441475 161.70439911 C-16.60441748 161.69474843 -19.40265582 161.71600972 -22.20249939 161.74412537 C-23.42854889 161.72883034 -23.42854889 161.72883034 -24.67936707 161.71322632 C-30.83098044 161.82351429 -34.48552384 163.83580185 -39.41319275 167.38768005 C-40.07319275 167.71768005 -40.73319275 168.04768005 -41.41319275 168.38768005 C-40.0737323 154.23553102 -37.87313535 140.26191905 -35.5589447 126.24015808 C-34.43700855 119.43823455 -33.33074487 112.63377028 -32.22569275 105.8290863 C-32.11113235 105.12439209 -31.99657196 104.41969788 -31.87854004 103.69364929 C-28.78236863 84.63391424 -25.86463809 65.54681958 -22.95045471 46.45856953 C-22.64270382 44.44297675 -22.33472048 42.4274196 -22.02671814 40.41186523 C-21.65325017 37.9660709 -21.28061692 35.52014887 -20.90904236 33.07406616 C-20.57682131 30.89553696 -20.2415196 28.71747465 -19.9026947 26.53996277 C-19.56758127 24.38190746 -19.24100637 22.22251375 -18.92173767 20.0620575 C-18.75842957 19.00113892 -18.59512146 17.94022034 -18.42686462 16.84715271 C-18.285672 15.90554291 -18.14447937 14.96393311 -17.99900818 13.99378967 C-17.08297052 9.91862465 -15.36555003 6.36153508 -12.41319275 3.38768005 C-8.1054224 0.87125972 -4.97031404 0.01097695 0 0 Z " fill="#001C64" transform="translate(445.41319274902344,107.61231994628906)"/>
<path d="M0 0 C0.74862808 -0.00365067 1.49725616 -0.00730133 2.26856995 -0.01106262 C4.74454442 -0.01916827 7.21986372 -0.0055454 9.69580078 0.0090332 C11.42774454 0.00955235 13.1596889 0.00903253 14.89163208 0.00752258 C18.52826705 0.00761234 22.16468055 0.01803922 25.80126953 0.03613281 C30.42512918 0.05865079 35.04866056 0.0593952 39.67255974 0.05261517 C43.25547106 0.04924256 46.83830994 0.0559693 50.42120743 0.0657444 C52.12335961 0.06955309 53.82551994 0.07076293 55.52767563 0.06915855 C79.68538323 0.06535639 101.96797405 3.89367087 119.85595703 21.54418945 C133.53507529 36.08704058 138.41019609 52.49449917 137.85595703 72.1184082 C136.77643718 93.35152643 125.94525773 112.70895765 110.70361328 127.18481445 C102.72460286 133.96014834 94.12886698 139.01872787 84.39111328 142.74731445 C83.77091309 142.98603271 83.15071289 143.22475098 82.51171875 143.47070312 C73.29862456 146.78162143 63.9935288 147.65240306 54.26611328 147.6105957 C52.17365869 147.62598929 50.08121061 147.64229091 47.98876953 147.65942383 C44.73194847 147.67597724 41.47561043 147.68472749 38.21875 147.67773438 C35.04649187 147.67512834 31.87567868 147.70309477 28.70361328 147.7355957 C27.72553711 147.72538895 26.74746094 147.71518219 25.73974609 147.70466614 C24.83450195 147.71785385 23.92925781 147.73104156 22.99658203 147.74462891 C21.80391724 147.74557304 21.80391724 147.74557304 20.5871582 147.74653625 C18.29632252 148.22205785 18.29632252 148.22205785 16.80702209 150.55400085 C15.46701939 153.47949629 14.85515418 155.91609486 14.38110352 159.09301758 C14.12084633 160.7800177 14.12084633 160.7800177 13.85533142 162.50109863 C13.68022537 163.70641235 13.50511932 164.91172607 13.32470703 166.15356445 C13.13393082 167.39980591 12.9431546 168.64604736 12.74659729 169.93005371 C12.24172085 173.23473711 11.74558097 176.54046475 11.25463867 179.847229 C10.56235422 184.50442809 9.85981848 189.16002973 9.1499176 193.8145752 C8.7728873 196.28993111 8.40200678 198.76623328 8.03794861 201.24353027 C7.86759598 202.36819702 7.69724335 203.49286377 7.52172852 204.65161133 C7.37533432 205.63802612 7.22894012 206.62444092 7.07810974 207.64074707 C6.26920339 211.57241277 5.37915617 214.50927156 2.51611328 217.37231445 C0.62538147 217.63301086 0.62538147 217.63301086 -1.70239258 217.64697266 C-3.009011 217.66127068 -3.009011 217.66127068 -4.34202576 217.67585754 C-5.28473831 217.67494614 -6.22745087 217.67403473 -7.19873047 217.6730957 C-8.16541153 217.67738083 -9.13209259 217.68166595 -10.12806702 217.68608093 C-12.17496964 217.69183057 -14.22189271 217.69231985 -16.26879883 217.68798828 C-19.40530185 217.68483065 -22.54085996 217.70827167 -25.67724609 217.73364258 C-27.66357302 217.73591569 -29.6499025 217.73661901 -31.63623047 217.7355957 C-32.57691879 217.74480545 -33.51760712 217.7540152 -34.48680115 217.76350403 C-35.36103226 217.75727524 -36.23526337 217.75104645 -37.13598633 217.74462891 C-38.28942787 217.74557304 -38.28942787 217.74557304 -39.46617126 217.74653625 C-42.11399748 217.25544902 -42.87362263 216.52003578 -44.48388672 214.37231445 C-45.20802623 204.06211313 -42.27408994 192.77686212 -40.64819336 182.58203125 C-40.35529914 180.72126397 -40.06284637 178.86042716 -39.77079773 176.99952698 C-38.98208443 171.98263629 -38.18698724 166.96677715 -37.39048314 161.95111823 C-36.55534105 156.68633843 -35.72549585 151.42072343 -34.8948822 146.15522766 C-33.50047565 137.32101521 -32.1019692 128.48745936 -30.70092773 119.65429688 C-29.08302946 109.45363048 -27.47133532 99.25199873 -25.86301142 89.04981869 C-24.31209928 79.21258267 -22.75710982 69.37599548 -21.20016289 59.53971291 C-20.53905184 55.36268638 -19.8793065 51.18544756 -19.22065926 47.00803185 C-18.44503464 42.0900378 -17.66581647 37.17262607 -16.88385201 32.25563622 C-16.59802363 30.45473105 -16.31340394 28.65363355 -16.03010178 26.85232925 C-15.64225862 24.3876797 -15.24996973 21.92377658 -14.85658264 19.46000671 C-14.746362 18.75289683 -14.63614135 18.04578694 -14.52258068 17.31724948 C-12.46519785 4.54279519 -12.46519785 4.54279519 -9.82662964 1.39558411 C-6.55818645 -0.03201544 -3.50221473 -0.03811586 0 0 Z M31.51611328 47.37231445 C30.69715113 52.26104853 29.87933404 57.1499724 29.0625 62.0390625 C28.78545786 63.69633951 28.50812267 65.35356756 28.23046875 67.01074219 C27.31705533 72.46319378 26.41167465 77.91690184 25.51611328 83.37231445 C25.19852051 85.30324951 25.19852051 85.30324951 24.87451172 87.27319336 C24.69178711 88.41578613 24.5090625 89.55837891 24.32080078 90.7355957 C24.16337402 91.71439697 24.00594727 92.69319824 23.84375 93.70166016 C23.52623726 96.28979119 23.45512596 98.76791906 23.51611328 101.37231445 C27.40808078 101.42261327 31.29991653 101.45844757 35.19213867 101.48217773 C37.14980746 101.49690955 39.10738646 101.52235143 41.06494141 101.5480957 C55.06813702 101.61935879 68.52637748 100.94466187 79.39111328 91.18481445 C85.97679532 83.92966592 86.96049337 76.20431061 86.94970703 66.66918945 C86.13321849 60.46093424 83.23225927 56.35483773 78.51611328 52.37231445 C71.61885886 48.20318298 65.6186331 47.21693953 57.59033203 47.2746582 C56.84274124 47.27607315 56.09515045 47.2774881 55.3249054 47.27894592 C52.95109963 47.28451682 50.57739025 47.29706385 48.20361328 47.30981445 C46.58838027 47.31483322 44.97314578 47.31939547 43.35791016 47.32348633 C39.41060773 47.3344767 35.46337682 47.35172114 31.51611328 47.37231445 Z " fill="#006FE0" transform="translate(567.48388671875,634.627685546875)"/>
<path d="M0 0 C0.75984192 -0.00350464 1.51968384 -0.00700928 2.30255127 -0.01062012 C4.82109664 -0.01943809 7.33936177 -0.01358226 9.85791016 -0.00683594 C11.61609959 -0.00818397 13.37428865 -0.01012565 15.13247681 -0.01263428 C18.82630953 -0.01558678 22.52004568 -0.01128903 26.21386719 -0.00195312 C30.91518683 0.00935783 35.616276 0.0029363 40.3175869 -0.00909805 C43.95534952 -0.01638513 47.59305915 -0.01399616 51.23082352 -0.00884247 C52.96171725 -0.00752044 54.69261601 -0.00910218 56.42350388 -0.01380157 C81.40727675 -0.06667938 102.87745907 4.50742583 121.52197266 22.25878906 C134.18655798 36.99106179 139.67675554 53.94242078 138.52197266 73.25878906 C135.75385085 94.00880447 127.15058151 110.60885571 112.52197266 125.25878906 C111.86455078 125.9278125 111.20712891 126.59683594 110.52978516 127.28613281 C95.85437074 141.17423959 75.19015318 147.52352045 55.36962891 147.56738281 C53.27392256 147.59250613 51.1782195 147.61790459 49.08251953 147.64355469 C45.81486627 147.67244575 42.54726944 147.69650068 39.27954102 147.71508789 C36.1009695 147.73664958 32.92299536 147.77603408 29.74462891 147.81738281 C28.76341568 147.81749863 27.78220245 147.81761444 26.77125549 147.81773376 C25.40854774 147.83774193 25.40854774 147.83774193 24.01831055 147.8581543 C23.22018448 147.86322495 22.42205841 147.86829559 21.5997467 147.8735199 C18.92296592 148.36985928 18.10111466 149.05167772 16.52197266 151.25878906 C15.76321486 153.70095484 15.76321486 153.70095484 15.38696289 156.50537109 C15.2134581 157.57723663 15.03995331 158.64910217 14.8611908 159.75344849 C14.68608475 160.912789 14.5109787 162.07212952 14.33056641 163.26660156 C14.13979019 164.46179413 13.94901398 165.65698669 13.75245667 166.88839722 C13.14326834 170.71847711 12.55079081 174.55091331 11.95947266 178.38378906 C11.36134397 182.19466133 10.75976439 186.00496296 10.15577698 189.81491089 C9.78098558 192.18610751 9.41013193 194.55793094 9.04380798 196.93045044 C7.03482175 209.79411444 7.03482175 209.79411444 5.52197266 215.25878906 C2.43177171 217.31892303 1.77625154 217.51014619 -1.71826172 217.51757812 C-2.56924438 217.52388245 -3.42022705 217.53018677 -4.29699707 217.53668213 C-5.21267456 217.53263367 -6.12835205 217.52858521 -7.07177734 217.52441406 C-8.01484741 217.52632751 -8.95791748 217.52824097 -9.92956543 217.5302124 C-11.92342394 217.53157337 -13.91729133 217.52788309 -15.91113281 217.51953125 C-18.9661852 217.50883054 -22.02064954 217.51942958 -25.07568359 217.53222656 C-27.01188281 217.53090495 -28.94808166 217.52834253 -30.88427734 217.52441406 C-31.79995483 217.52846252 -32.71563232 217.53251099 -33.65905762 217.53668213 C-34.93553162 217.52722565 -34.93553162 217.52722565 -36.23779297 217.51757812 C-36.9859729 217.51598694 -37.73415283 217.51439575 -38.50500488 217.51275635 C-40.47802734 217.25878906 -40.47802734 217.25878906 -43.47802734 215.25878906 C-45.4039264 205.80031859 -42.16683675 194.40610507 -40.6640625 185.00537109 C-40.36118623 183.07110964 -40.05903608 181.13673436 -39.7575531 179.20225525 C-38.94084655 173.97628469 -38.11361152 168.75203191 -37.28408861 163.52808237 C-36.41614633 158.05267844 -35.55688816 152.57591103 -34.69638062 147.09933472 C-33.25122669 137.91066454 -31.79932074 128.72308086 -30.34326172 119.53613281 C-28.6600695 108.91562633 -26.98709491 98.29354903 -25.31965983 87.67055809 C-23.71379295 77.44106354 -22.10122682 67.21263638 -20.48542404 56.98470688 C-19.79836172 52.63507295 -19.1135624 48.28509166 -18.43056107 43.93481827 C-17.62671736 38.81706743 -16.81698796 33.70028175 -16.00268745 28.58418465 C-15.70475966 26.70635896 -15.40884214 24.82821307 -15.11507607 22.94973183 C-14.71399155 20.38722529 -14.30564459 17.8259793 -13.89541626 15.2649231 C-13.78062255 14.52047381 -13.66582883 13.77602452 -13.54755652 13.00901616 C-12.92964697 9.20445078 -12.25688202 5.69799084 -10.47802734 2.25878906 C-6.84820676 -0.16109133 -4.19336425 -0.02368234 0 0 Z M32.52197266 47.25878906 C30.71649157 53.01962758 29.69941687 58.75268499 28.79541016 64.71582031 C28.64286774 65.69999435 28.49032532 66.6841684 28.3331604 67.69816589 C28.01347452 69.7661474 27.69591473 71.83445857 27.38037109 73.90307617 C26.89579209 77.07902654 26.40475893 80.25392758 25.91259766 83.42871094 C25.60232781 85.4410231 25.29241916 87.45339099 24.98291016 89.46582031 C24.76264664 90.89387749 24.76264664 90.89387749 24.53793335 92.3507843 C24.40424347 93.22897324 24.27055359 94.10716217 24.1328125 95.01196289 C24.01449066 95.7858284 23.89616882 96.55969391 23.77426147 97.35700989 C23.47813691 99.26948739 23.47813691 99.26948739 23.52197266 101.25878906 C27.57466784 101.30896529 31.62723785 101.3448675 35.68017578 101.36865234 C37.05325477 101.37858826 38.42631332 101.39214168 39.79931641 101.40966797 C54.09542423 101.58732428 68.83343209 101.23822604 79.95166016 91.10253906 C85.643106 84.42004543 87.92221689 76.52912264 87.79541016 67.91894531 C87.17902598 61.9224078 84.73972818 57.05201304 80.39697266 52.88378906 C71.01636491 45.99645149 59.96056425 46.88808649 48.89697266 47.07128906 C47.30453743 47.0863671 45.71208836 47.10004997 44.11962891 47.11230469 C40.25339595 47.14505457 36.38784056 47.19666246 32.52197266 47.25878906 Z " fill="#002F87" transform="translate(43.47802734375,634.7412109375)"/>
<path d="M0 0 C0.19335938 -0.63808594 0.38671875 -1.27617188 0.5859375 -1.93359375 C0.84632813 -2.75988281 1.10671875 -3.58617187 1.375 -4.4375 C1.63023437 -5.26121094 1.88546875 -6.08492187 2.1484375 -6.93359375 C3 -9 3 -9 5 -10 C6.34185915 -10.10881769 7.68876943 -10.15891423 9.03491211 -10.17700195 C9.86594955 -10.18983719 10.696987 -10.20267242 11.5532074 -10.21589661 C12.45217239 -10.22328354 13.35113739 -10.23067047 14.27734375 -10.23828125 C15.19963272 -10.246353 16.12192169 -10.25442474 17.07215881 -10.26274109 C19.02489337 -10.27658222 20.97765213 -10.28730424 22.93041992 -10.29516602 C25.92217477 -10.31241166 28.91283395 -10.35630072 31.90429688 -10.40039062 C33.79947102 -10.41051454 35.69465458 -10.41903158 37.58984375 -10.42578125 C38.9352549 -10.45204338 38.9352549 -10.45204338 40.30784607 -10.47883606 C41.55913048 -10.47444771 41.55913048 -10.47444771 42.83569336 -10.4699707 C43.93584023 -10.47877007 43.93584023 -10.47877007 45.05821228 -10.48774719 C47 -10 47 -10 48.79347229 -8.37217712 C50.4574817 -5.10053651 50.02346836 -3.20006357 49.46875 0.42480469 C49.36888794 1.10840435 49.26902588 1.79200401 49.1661377 2.49631882 C48.79480486 5.00045606 48.39638403 7.499709 48 10 C47.6809326 12.10546669 47.3633209 14.21115431 47.046875 16.3170166 C45.9961713 23.26022263 44.91362372 30.19831151 43.82449341 37.13557148 C43.49733526 39.22010375 43.17081163 41.30473448 42.84448242 43.38939667 C41.7037489 50.67588267 40.5601155 57.96190746 39.4140625 65.24755859 C38.34844025 72.02248327 37.28979867 78.7984752 36.23418427 85.57496572 C35.32335175 91.41978515 34.40739408 97.26378673 33.48749542 103.10718608 C32.93988841 106.58638281 32.39441501 110.06588146 31.85424805 113.54624176 C31.25399862 117.41254252 30.64312463 121.27712264 30.03125 125.14160156 C29.85456787 126.28962753 29.67788574 127.4376535 29.49584961 128.62046814 C29.32770752 129.6714418 29.15956543 130.72241547 28.98632812 131.80523682 C28.84328247 132.71731022 28.70023682 133.62938362 28.55285645 134.56909561 C27.99828155 137.007556 27.30343989 138.86980405 26 141 C22.59819251 142.70090374 18.7208744 142.20663316 14.9765625 142.23828125 C14.07884125 142.246353 13.18112 142.25442474 12.25619507 142.26274109 C10.35473565 142.27658291 8.45325136 142.28730463 6.55175781 142.29516602 C3.64340216 142.31239101 0.73617968 142.35627691 -2.171875 142.40039062 C-4.0182208 142.41051645 -5.86457627 142.4190329 -7.7109375 142.42578125 C-8.5808432 142.44328934 -9.4507489 142.46079742 -10.34701538 142.47883606 C-16.36773199 142.4571997 -16.36773199 142.4571997 -19.56494141 140.14526367 C-21.29458679 137.55962332 -21.33904833 136.05143498 -21 133 C-22.57587891 133.81404297 -22.57587891 133.81404297 -24.18359375 134.64453125 C-43.49884056 144.52766028 -62.88162901 148.83432316 -84.2578125 142.3125 C-101.50934151 136.26185934 -115.03111227 125.55466906 -123.4921875 109.09765625 C-124.82333548 106.10060413 -125.95241296 103.10704793 -127 100 C-127.3196875 99.06285156 -127.639375 98.12570312 -127.96875 97.16015625 C-134.28077115 74.92197061 -129.94155181 49.61921338 -119.1484375 29.55859375 C-105.47709893 6.49161413 -86.71825319 -6.85384368 -61.2421875 -13.74609375 C-39.56993908 -18.55110296 -17.51603891 -13.53512097 0 0 Z M-73.3125 43.25 C-80.57324699 51.99223274 -84.41705781 61.55890098 -83.9375 72.9375 C-82.90046921 82.21185492 -78.88202262 88.98220473 -72.12109375 95.30859375 C-63.2687214 102.36766784 -53.92481706 102.60197972 -43 102 C-32.76182743 100.36742654 -23.30225181 94.1974397 -17 86 C-10.65772773 75.10503567 -7.86060896 64.65303546 -10.6484375 52.07421875 C-14.32287353 41.97737103 -20.60249588 36.67127794 -30.1328125 32.12890625 C-45.22395515 26.18702583 -62.48364338 31.79367692 -73.3125 43.25 Z " fill="#006FE0" transform="translate(826,710)"/>
<path d="M0 0 C1.68712551 1.30734964 3.36057359 2.63331181 5 4 C5.19335938 3.44570313 5.38671875 2.89140625 5.5859375 2.3203125 C5.84632813 1.59585938 6.10671875 0.87140625 6.375 0.125 C6.63023437 -0.59429688 6.88546875 -1.31359375 7.1484375 -2.0546875 C8 -4 8 -4 10 -6 C11.81480408 -6.26069641 11.81480408 -6.26069641 14.03491211 -6.2746582 C14.86594955 -6.28419022 15.696987 -6.29372223 16.5532074 -6.30354309 C17.45217239 -6.30263168 18.35113739 -6.30172028 19.27734375 -6.30078125 C20.19963272 -6.30506638 21.12192169 -6.3093515 22.07215881 -6.31376648 C24.02490416 -6.31951559 25.97767092 -6.32000578 27.93041992 -6.31567383 C30.92208335 -6.31251627 33.91275599 -6.3359573 36.90429688 -6.36132812 C38.79947792 -6.36360126 40.69466162 -6.36430455 42.58984375 -6.36328125 C43.48678452 -6.372491 44.38372528 -6.38170074 45.30784607 -6.39118958 C46.55913048 -6.38184639 46.55913048 -6.38184639 47.83569336 -6.37231445 C48.5691246 -6.37294388 49.30255585 -6.3735733 50.05821228 -6.3742218 C52 -6 52 -6 53.76026917 -4.97673035 C57.53051002 1.03485644 54.1520284 11.48367962 53.10400391 18.02197266 C52.90239151 19.310728 52.70077911 20.59948334 52.49305725 21.92729187 C51.94286113 25.44248888 51.38496904 28.95642343 50.82535219 32.4701314 C50.23922848 36.15692341 49.659317 39.84469328 49.07846069 43.53231812 C48.1025602 49.72145933 47.12162451 55.90978668 46.13769531 62.09765625 C45.00165653 69.24254648 43.87370251 76.38867764 42.75004065 83.53552401 C41.66662612 90.42511485 40.57740352 97.31377551 39.48557663 104.20203781 C39.02199647 107.12742169 38.56045555 110.05311641 38.10057449 112.97908401 C37.45792008 117.06595329 36.80678468 121.15142759 36.15478516 125.23681641 C35.9656102 126.44632462 35.77643524 127.65583282 35.58152771 128.9019928 C35.40208115 130.01776199 35.22263458 131.13353119 35.03775024 132.28311157 C34.80822379 133.73041121 34.80822379 133.73041121 34.57406044 135.20694923 C32.88856158 143.40762562 32.88856158 143.40762562 29 146 C27.10290527 146.26069641 27.10290527 146.26069641 24.94335938 146.2746582 C24.13241821 146.28419022 23.32147705 146.29372223 22.48596191 146.30354309 C21.17806702 146.30217598 21.17806702 146.30217598 19.84375 146.30078125 C18.94507202 146.30506638 18.04639404 146.3093515 17.1204834 146.31376648 C15.22079308 146.31950843 13.32108077 146.32001103 11.42138672 146.31567383 C8.51101319 146.31251196 5.60165421 146.33598096 2.69140625 146.36132812 C0.84635545 146.3636009 -0.99869809 146.36430472 -2.84375 146.36328125 C-3.71567993 146.372491 -4.58760986 146.38170074 -5.48596191 146.39118958 C-6.29690308 146.38496078 -7.10784424 146.37873199 -7.94335938 146.37231445 C-9.01233459 146.37325859 -9.01233459 146.37325859 -10.10290527 146.3742218 C-12.5942433 145.88277929 -13.46608073 144.99372838 -15 143 C-15.6875 139.8125 -15.6875 139.8125 -16 137 C-16.82177734 137.56267578 -16.82177734 137.56267578 -17.66015625 138.13671875 C-33.77401991 148.53867627 -53.5192952 151.84919107 -72.30688477 147.97460938 C-90.40813603 143.55334634 -104.87076262 134.11274936 -115.0234375 118.33984375 C-126.68538456 98.63437984 -127.03578367 75.84417032 -122 54 C-118.0212122 39.68453522 -110.76240688 27.16516049 -101 16 C-100.40832031 15.31292969 -99.81664062 14.62585938 -99.20703125 13.91796875 C-74.55935974 -12.72674225 -30.53649332 -19.63983209 0 0 Z M-68 47 C-75.96843426 57.57316976 -79.42284682 67.72009633 -78 81 C-76.23674128 88.76277425 -71.98317194 94.82343315 -66 100 C-56.10947653 106.22241642 -45.34348002 107.83200628 -33.88671875 105.31640625 C-22.37524185 101.39240917 -13.87040117 94.78332783 -8.25 84 C-3.78174345 74.44568936 -2.26772768 65.50791135 -5.5625 55.3125 C-8.70450827 47.55705 -14.49549234 40.8544553 -22 37 C-37.6951771 31.08449252 -56.35858311 34.12341952 -68 47 Z " fill="#002F87" transform="translate(297,706)"/>
<path d="M0 0 C1.33180801 -0.01913956 1.33180801 -0.01913956 2.69052124 -0.03866577 C4.13269516 -0.04200424 4.13269516 -0.04200424 5.60400391 -0.04541016 C6.59050934 -0.05206696 7.57701477 -0.05872375 8.59341431 -0.06558228 C10.68318819 -0.07572029 12.77299452 -0.08039894 14.86279297 -0.08007812 C18.06092762 -0.08444584 21.25767663 -0.12073865 24.45556641 -0.15869141 C26.48420751 -0.16456038 28.51285518 -0.16852923 30.54150391 -0.17041016 C31.49890472 -0.18478119 32.45630554 -0.19915222 33.44271851 -0.21395874 C34.33689484 -0.20780548 35.23107117 -0.20165222 36.15234375 -0.1953125 C36.93684906 -0.19816254 37.72135437 -0.20101257 38.52963257 -0.20394897 C41.63523233 0.50179194 42.74996653 1.80483441 44.70556641 4.29052734 C45.8944397 7.11616516 45.8944397 7.11616516 46.87207031 10.41674805 C47.24570709 11.65515945 47.61934387 12.89357086 48.00430298 14.16950989 C48.397193 15.51836086 48.78979454 16.86729589 49.18212891 18.21630859 C49.59649639 19.60662881 50.01199091 20.99661359 50.42855835 22.38627625 C51.52088224 26.04140143 52.59767816 29.70092456 53.67132568 33.36157227 C54.76179539 37.06922984 55.86719979 40.77242532 56.97119141 44.47607422 C59.92572919 54.40172359 62.86915775 64.33037038 65.70556641 74.29052734 C68.70960276 70.70199146 71.15207676 67.03228037 73.49853516 62.98583984 C74.01933655 62.09203613 74.01933655 62.09203613 74.55065918 61.18017578 C75.28791265 59.91396044 76.0233783 58.64670268 76.75717163 57.378479 C78.29055938 54.72861557 79.83302276 52.08407646 81.37495422 49.43917847 C82.13312791 48.13843721 82.89085363 46.83743473 83.64811707 45.53616333 C87.19148444 39.44784282 90.79103138 33.3976826 94.44628906 27.37597656 C96.056841 24.70879265 97.65153541 22.03225298 99.24853516 19.35693359 C100.52556881 17.23044525 101.8029133 15.10414356 103.08056641 12.97802734 C103.99261841 11.4439624 103.99261841 11.4439624 104.9230957 9.87890625 C105.49842041 8.9254834 106.07374512 7.97206055 106.66650391 6.98974609 C107.18003418 6.1321167 107.69356445 5.2744873 108.22265625 4.39086914 C109.70556641 2.29052734 109.70556641 2.29052734 112.70556641 0.29052734 C114.87513733 0.03656006 114.87513733 0.03656006 117.4206543 0.03173828 C118.37496841 0.02543396 119.32928253 0.01912964 120.31251526 0.01263428 C121.3406987 0.01668274 122.36888214 0.0207312 123.42822266 0.02490234 C124.48464462 0.02298889 125.54106659 0.02107544 126.62950134 0.019104 C128.86294798 0.01774271 131.09640254 0.02143528 133.32983398 0.02978516 C136.75799218 0.04049587 140.18562757 0.02988234 143.61376953 0.01708984 C145.7810884 0.01841124 147.94840694 0.02097322 150.11572266 0.02490234 C151.14593033 0.02085388 152.176138 0.01680542 153.23756409 0.01263428 C154.18872604 0.0189386 155.139888 0.02524292 156.11987305 0.03173828 C157.37871056 0.03412506 157.37871056 0.03412506 158.66297913 0.03656006 C160.70556641 0.29052734 160.70556641 0.29052734 162.70556641 2.29052734 C163.3991297 7.49598088 161.73916718 10.51003836 158.89306641 14.66552734 C153.85240278 22.36316728 149.13775095 30.22889364 144.46594238 38.15319824 C133.39104762 56.93385998 133.39104762 56.93385998 128.64306641 64.41552734 C124.01301479 71.71236508 119.57989617 79.12538335 115.14306641 86.54052734 C109.07227787 96.68607652 102.97527941 106.8145625 96.83056641 116.91552734 C92.09963101 124.6937484 87.38017114 132.47827369 82.70556641 140.29052734 C77.81916689 148.45476539 72.8931621 156.59469201 67.95556641 164.72802734 C67.60284668 165.30931396 67.25012695 165.89060059 66.88671875 166.48950195 C65.17751723 169.305809 63.46515598 172.12006241 61.74658203 174.93066406 C60.34264846 177.24178054 58.95612776 179.55764436 57.58642578 181.88867188 C57.06227081 182.76882713 57.06227081 182.76882713 56.52752686 183.66676331 C55.56369778 185.28531611 54.60845616 186.90897386 53.65380859 188.53295898 C51.46110763 191.63653761 50.02951835 193.40832952 46.70556641 195.29052734 C43.13342357 195.84513711 39.61469539 195.80352946 36.00634766 195.75146484 C34.97495163 195.7505484 33.9435556 195.74963196 32.88090515 195.74868774 C30.70644513 195.74265727 28.5319932 195.72692801 26.35766602 195.70214844 C23.01954776 195.66554359 19.68253666 195.66112984 16.34423828 195.66162109 C14.23159843 195.65179351 12.11896612 195.64013808 10.00634766 195.62646484 C8.50325798 195.62312637 8.50325798 195.62312637 6.96980286 195.61972046 C6.04511703 195.60696075 5.12043121 195.59420105 4.16772461 195.58105469 C3.35229691 195.57343109 2.5368692 195.5658075 1.69673157 195.55795288 C-0.29443359 195.29052734 -0.29443359 195.29052734 -2.29443359 193.29052734 C-2.74027969 188.84435498 -2.12185797 186.26698402 0.24072266 182.51708984 C1.07313477 181.17360474 1.07313477 181.17360474 1.92236328 179.80297852 C2.53144531 178.85011963 3.14052734 177.89726074 3.76806641 176.91552734 C4.70295898 175.41759644 4.70295898 175.41759644 5.65673828 173.8894043 C6.98114108 171.7705909 8.31155182 169.65552288 9.64746094 167.54394531 C12.37134767 163.2380717 15.06589666 158.91414686 17.76196289 154.59082031 C19.02301326 152.57117552 20.28669302 150.55316922 21.5534668 148.53710938 C22.7195042 146.68112512 23.87477809 144.81832577 25.01806641 142.94824219 C26.70556641 140.29052734 26.70556641 140.29052734 28.58056641 137.79296875 C31.94585004 133.12937961 31.94585004 133.12937961 32.41020203 127.57466125 C32.1373085 126.62278427 31.86441498 125.67090729 31.58325195 124.69018555 C31.28615326 123.63459946 30.98905457 122.57901337 30.68295288 121.49143982 C30.36041534 120.4351387 30.03787781 119.37883759 29.70556641 118.29052734 C29.41968658 117.3518129 29.13380676 116.41309845 28.83926392 115.44593811 C27.93384974 112.56893604 26.99133576 109.70654646 26.03759766 106.84521484 C25.68533615 105.77590225 25.33307465 104.70658966 24.97013855 103.60487366 C24.21469593 101.31256539 23.45743148 99.02085683 22.69848633 96.72970581 C20.67724313 90.62673232 18.67013434 84.51911437 16.66259766 78.41162109 C16.25204132 77.16343094 15.84148499 75.91524078 15.41848755 74.62922668 C10.41078836 59.38339159 5.53334478 44.09615508 0.65795898 28.80761719 C0.3379744 27.80427841 0.01798981 26.80093964 -0.31169128 25.76719666 C-0.90436479 23.90796349 -1.4965368 22.04857035 -2.08808899 20.1889801 C-2.35083115 19.3638945 -2.6135733 18.5388089 -2.88427734 17.6887207 C-3.12678223 16.926633 -3.36928711 16.16454529 -3.61914062 15.37936401 C-4.21576477 13.53386815 -4.84086749 11.69763169 -5.47021484 9.86303711 C-6.34024558 7.1475413 -6.60900372 5.12165848 -6.29443359 2.29052734 C-3.88185078 -0.12205547 -3.29853593 0.03211937 0 0 Z " fill="#002F87" transform="translate(370.29443359375,699.70947265625)"/>
<path d="M0 0 C0.91945908 -0.00287018 1.83891815 -0.00574036 2.78623962 -0.00869751 C4.72704689 -0.01073642 6.66787478 -0.00521865 8.60864258 0.00732422 C11.58265972 0.02339867 14.55532163 0.00746026 17.52929688 -0.01171875 C19.41536759 -0.00973665 21.30143745 -0.00589365 23.1875 0 C24.07816666 -0.00607269 24.96883331 -0.01214539 25.88648987 -0.0184021 C26.71422409 -0.00894562 27.54195831 0.00051086 28.39477539 0.01025391 C29.12217422 0.01264069 29.84957306 0.01502747 30.59901428 0.01748657 C33.1284554 0.51719005 33.91410534 1.41306109 35.52734375 3.3984375 C37.4754004 12.3836304 34.13945051 23.59909999 32.71337891 32.53833008 C32.41056834 34.47245431 32.1084161 36.40668172 31.80686951 38.34100342 C30.9894807 43.5710536 30.16249329 48.7995436 29.33340502 54.02775025 C28.46601881 59.50591707 27.60643297 64.98530845 26.74569702 70.46452332 C25.30004849 79.65909009 23.84818476 88.85265909 22.39257812 98.0456543 C20.70983942 108.67359538 19.03680874 119.30303014 17.36897624 129.93331987 C15.76305875 140.16760929 14.15045549 150.40083428 12.53474045 160.63358116 C11.84762026 164.98599743 11.16282099 169.3387695 10.47987747 173.69184303 C9.67600332 178.81367889 8.86627559 183.93455573 8.05200386 189.05474854 C7.75407394 190.93418587 7.4581564 192.81394348 7.16439247 194.69403648 C6.76330749 197.25878518 6.35495905 199.82227432 5.94473267 202.38557434 C5.82993895 203.13070575 5.71514524 203.87583716 5.59687293 204.64354831 C4.10823053 213.81755072 4.10823053 213.81755072 0.52734375 217.3984375 C-1.36338806 217.65913391 -1.36338806 217.65913391 -3.69116211 217.6730957 C-4.99778053 217.68739372 -4.99778053 217.68739372 -6.33079529 217.70198059 C-7.27350784 217.70106918 -8.2162204 217.70015778 -9.1875 217.69921875 C-10.15418106 217.70350388 -11.12086212 217.707789 -12.11683655 217.71220398 C-14.16373918 217.71795362 -16.21066224 217.7184429 -18.25756836 217.71411133 C-21.39407138 217.71095369 -24.52962949 217.73439472 -27.66601562 217.75976562 C-29.65234256 217.76203873 -31.63867203 217.76274206 -33.625 217.76171875 C-34.56568832 217.7709285 -35.50637665 217.78013824 -36.47557068 217.78962708 C-37.34980179 217.78339828 -38.2240329 217.77716949 -39.12475586 217.77075195 C-40.2781974 217.77169609 -40.2781974 217.77169609 -41.4549408 217.7726593 C-44.10276701 217.28157207 -44.86239216 216.54615882 -46.47265625 214.3984375 C-47.19679576 204.08823617 -44.26285948 192.80298517 -42.63696289 182.6081543 C-42.34406867 180.74738702 -42.0516159 178.88655021 -41.75956726 177.02565002 C-40.97085396 172.00875933 -40.17575677 166.9929002 -39.37925267 161.97724128 C-38.54411058 156.71246148 -37.71426538 151.44684647 -36.88365173 146.18135071 C-35.48924518 137.34713826 -34.09073873 128.5135824 -32.68969727 119.68041992 C-31.071799 109.47975352 -29.46010485 99.27812177 -27.85178095 89.07594174 C-26.30086881 79.23870571 -24.74587935 69.40211853 -23.18893242 59.56583595 C-22.52782137 55.38880942 -21.86807603 51.21157061 -21.20942879 47.03415489 C-20.43380417 42.11616085 -19.654586 37.19874912 -18.87262154 32.28175926 C-18.58679316 30.48085409 -18.30217347 28.6797566 -18.01887131 26.8784523 C-17.63102815 24.41380275 -17.23873926 21.94989963 -16.84535217 19.48612976 C-16.73513153 18.77901987 -16.62491088 18.07190998 -16.51135021 17.34337252 C-14.47304243 4.68735679 -14.47304243 4.68735679 -11.93969727 1.42333984 C-8.02120937 -0.20454855 -4.20125577 -0.02871001 0 0 Z " fill="#006FE0" transform="translate(924.47265625,634.6015625)"/>
</svg>
